<?xml version="1.0" encoding="UTF-8" standalone="no"?>
<!-- Created with Inkscape (http://www.inkscape.org/) -->

<svg
   xmlns:dc="http://purl.org/dc/elements/1.1/"
   xmlns:cc="http://creativecommons.org/ns#"
   xmlns:rdf="http://www.w3.org/1999/02/22-rdf-syntax-ns#"
   xmlns:svg="http://www.w3.org/2000/svg"
   xmlns="http://www.w3.org/2000/svg"
   xmlns:sodipodi="http://sodipodi.sourceforge.net/DTD/sodipodi-0.dtd"
   xmlns:inkscape="http://www.inkscape.org/namespaces/inkscape"
   width="50mm"
   height="50mm"
   id="svg18008"
   version="1.1"
   inkscape:version="0.48.4 r9939"
   sodipodi:docname="silkscreen3bold_standalone.svg"
   inkscape:export-filename="/home/phyks/hackEns/CitizenWatt/CitizenWatt-sensor/Hardware/CitizenBoard/silkscreen3bold.png"
   inkscape:export-xdpi="599.948"
   inkscape:export-ydpi="599.948">
  <defs
     id="defs18010">
    <clipPath
       clipPathUnits="userSpaceOnUse"
       id="clipPath4755">
      <path
         d="m 0,898.583 1247.243,0 L 1247.243,0 0,0 0,898.583 Z"
         id="path4757"
         inkscape:connector-curvature="0" />
    </clipPath>
    <clipPath
       clipPathUnits="userSpaceOnUse"
       id="clipPath6120">
      <g
         style="color:#000000;fill:url(#linearGradient6140);fill-opacity:1;fill-rule:nonzero;stroke:none;stroke-width:1;marker:none;visibility:visible;display:inline;overflow:visible;enable-background:accumulate"
         id="g6122">
        <path
           inkscape:connector-curvature="0"
           id="path6124"
           style="color:#000000;fill:url(#linearGradient6132);fill-opacity:1;fill-rule:nonzero;stroke:none;stroke-width:1;marker:none;visibility:visible;display:inline;overflow:visible;enable-background:accumulate"
           d="m 343.281,185.348 -91.508,-11.028 -0.281,28.098 91.524,11.027 0.265,-28.097 z" />
        <path
           inkscape:connector-curvature="0"
           id="path6126"
           style="color:#000000;fill:url(#linearGradient6134);fill-opacity:1;fill-rule:nonzero;stroke:none;stroke-width:1;marker:none;visibility:visible;display:inline;overflow:visible;enable-background:accumulate"
           d="m 343.84,140.363 -91.504,-11.023 -0.285,28.09 91.523,11.023 0.266,-28.09 z" />
        <path
           inkscape:connector-curvature="0"
           id="path6128"
           style="color:#000000;fill:url(#linearGradient6136);fill-opacity:1;fill-rule:nonzero;stroke:none;stroke-width:1;marker:none;visibility:visible;display:inline;overflow:visible;enable-background:accumulate"
           d="m 299.336,338.77 c -2.035,14.011 2.348,26.503 2.348,26.503 26.558,15.583 26.414,46.852 26.648,53.27 2.57,3.953 13.246,6.328 13.246,6.328 -31.238,7.117 -44.683,-44.281 -45.398,-71.308 -1.071,-40.18 28.738,-58.551 62.902,-37.653 41.734,25.528 52.785,72.176 44.508,104.676 l 21.785,20.738 c 18.414,-50.515 -0.988,-102.828 -34.148,-127.336 -66.465,-49.117 -105.985,-5.933 -109.782,14.481 -9.617,-3.578 -18.578,-4.738 -26.14,-4.098 -14.649,1.246 -26.399,8.817 -31.469,21.098 -18.445,44.676 25.699,79.375 27.445,80.961 l 7.278,-9.317 -7.926,8.77 7.957,-8.746 c -0.305,-0.278 -36.774,-34.492 -22.973,-62.828 8.449,-17.332 34.098,-4.176 42.524,1.781 -1.86,74.945 52.55,100.93 68.793,73.539 4.339,-7.316 6.914,-55.57 -47.157,-90.531 l -0.441,-0.328 z" />
        <path
           inkscape:connector-curvature="0"
           id="path6130"
           style="color:#000000;fill:url(#linearGradient6138);fill-opacity:1;fill-rule:nonzero;stroke:none;stroke-width:1;marker:none;visibility:visible;display:inline;overflow:visible;enable-background:accumulate"
           d="m 305.863,258.863 c -58.449,1.383 -109.23,46.032 -109.23,110.637 0,63.582 50.555,107.457 109.023,107.457 29.727,0 58.367,-11.66 77.602,-31.394 l 19.797,19.402 c -25,25.207 -59.657,40.828 -97.965,40.828 -76.192,0 -137.965,-61.773 -137.965,-137.977 0,-76.203 62.695,-139.57 138.883,-139.57 36.789,0 71.129,14.617 95.863,38.082 l -20.617,19.656 c -18.785,-17.023 -46.473,-27.808 -75.391,-27.121" />
      </g>
    </clipPath>
    <clipPath
       clipPathUnits="userSpaceOnUse"
       id="clipPath5928">
      <g
         id="g5930"
         style="color:#000000;fill:#dbdbdb;fill-opacity:1;fill-rule:nonzero;stroke:none;stroke-width:1;marker:none;visibility:visible;display:inline;overflow:visible;enable-background:accumulate">
        <path
           d="m 343.281,185.348 -91.508,-11.028 -0.281,28.098 91.524,11.027 0.265,-28.097 z"
           style="color:#000000;fill:#dbdbdb;fill-opacity:1;fill-rule:nonzero;stroke:none;stroke-width:1;marker:none;visibility:visible;display:inline;overflow:visible;enable-background:accumulate"
           id="path5932"
           inkscape:connector-curvature="0" />
        <path
           d="m 343.84,140.363 -91.504,-11.023 -0.285,28.09 91.523,11.023 0.266,-28.09 z"
           style="color:#000000;fill:#dbdbdb;fill-opacity:1;fill-rule:nonzero;stroke:none;stroke-width:1;marker:none;visibility:visible;display:inline;overflow:visible;enable-background:accumulate"
           id="path5934"
           inkscape:connector-curvature="0" />
        <path
           d="m 299.336,338.77 c -2.035,14.011 2.348,26.503 2.348,26.503 26.558,15.583 26.414,46.852 26.648,53.27 2.57,3.953 13.246,6.328 13.246,6.328 -31.238,7.117 -44.683,-44.281 -45.398,-71.308 -1.071,-40.18 28.738,-58.551 62.902,-37.653 41.734,25.528 52.785,72.176 44.508,104.676 l 21.785,20.738 c 18.414,-50.515 -0.988,-102.828 -34.148,-127.336 -66.465,-49.117 -105.985,-5.933 -109.782,14.481 -9.617,-3.578 -18.578,-4.738 -26.14,-4.098 -14.649,1.246 -26.399,8.817 -31.469,21.098 -18.445,44.676 25.699,79.375 27.445,80.961 l 7.278,-9.317 -7.926,8.77 7.957,-8.746 c -0.305,-0.278 -36.774,-34.492 -22.973,-62.828 8.449,-17.332 34.098,-4.176 42.524,1.781 -1.86,74.945 52.55,100.93 68.793,73.539 4.339,-7.316 6.914,-55.57 -47.157,-90.531 l -0.441,-0.328 z"
           style="color:#000000;fill:#dbdbdb;fill-opacity:1;fill-rule:nonzero;stroke:none;stroke-width:1;marker:none;visibility:visible;display:inline;overflow:visible;enable-background:accumulate"
           id="path5936"
           inkscape:connector-curvature="0" />
        <path
           d="m 305.863,258.863 c -58.449,1.383 -109.23,46.032 -109.23,110.637 0,63.582 50.555,107.457 109.023,107.457 29.727,0 58.367,-11.66 77.602,-31.394 l 19.797,19.402 c -25,25.207 -59.657,40.828 -97.965,40.828 -76.192,0 -137.965,-61.773 -137.965,-137.977 0,-76.203 62.695,-139.57 138.883,-139.57 36.789,0 71.129,14.617 95.863,38.082 l -20.617,19.656 c -18.785,-17.023 -46.473,-27.808 -75.391,-27.121"
           style="color:#000000;fill:#dbdbdb;fill-opacity:1;fill-rule:nonzero;stroke:none;stroke-width:1;marker:none;visibility:visible;display:inline;overflow:visible;enable-background:accumulate"
           id="path5938"
           inkscape:connector-curvature="0" />
      </g>
    </clipPath>
    <mask
       maskUnits="userSpaceOnUse"
       id="mask5914">
      <path
         style="fill:#ffffff;fill-opacity:1;stroke:none"
         d="m 312.00199,518.42325 c -37.64341,-0.48617 -76.24725,-17.82274 -105.66906,-37.62579 -47.0746,-31.68487 -62.45875,-100.46361 -43.44783,-167.45457 19.01093,-66.99082 33.93108,-85.11356 100.92204,-85.11356 l -0.43003,4.54349 c -57.9382,14.48455 -75.13283,84.16301 -79.6592,139.38519 -4.5265,55.22205 46.16372,109.55603 113.15468,116.79831 66.99082,7.24227 101.3916,-36.19997 101.3916,-36.19997 21.7267,-3.62108 30.76259,5.39783 -21.74381,45.23016 -19.68987,14.93714 -41.93227,20.7285 -64.51839,20.43674 z m 14.29786,-69.74627 -35.32863,-9.06986 -53.38902,-85.07389 15.36716,-15.84244 31.68488,16.27805 5.4261,30.77399 11.80249,24.0013 25.3479,22.61514 22.61514,-2.69321 4.07949,9.94106 z m -69.70672,-14.49595 -34.85337,-24.00117 -6.81225,-53.38902 15.40684,-26.2589 -6.33698,22.61514 1.34648,23.09029 11.76308,28.08079 18.57532,24.87262 z m 143.49281,-8.15873 c 0,0 -85.54916,-114.49571 -85.54916,-116.75877 0,-2.26344 17.18917,-7.72325 17.18917,-7.72325 l 27.60539,8.15885 c 0,0 22.19639,14.47885 37.58612,40.27946 15.38985,25.80049 15.36716,60.20127 15.36716,60.20127 z m -70.182,-4.51522 -9.03019,-6.77258 -18.57519,-38.49713 -4.99037,-22.61501 14.49583,5.42597 15.40671,19.92193 7.68371,24.43689 z m 30.3384,-200.9612 -138.06697,-12.67396 25.3479,-37.58624 z m 5.8617,-43.01235 -149.35465,-14.93144 26.25891,-40.7546 z"
         id="path5916"
         inkscape:connector-curvature="0"
         sodipodi:nodetypes="sssccsscsscccccccccccccccccccccsccscccccccccccccccccc" />
    </mask>
  </defs>
  <sodipodi:namedview
     id="base"
     pagecolor="#ffffff"
     bordercolor="#666666"
     borderopacity="1.0"
     inkscape:pageopacity="0.0"
     inkscape:pageshadow="2"
     inkscape:zoom="1.979899"
     inkscape:cx="170.77798"
     inkscape:cy="102.18931"
     inkscape:document-units="px"
     inkscape:current-layer="layer3"
     showgrid="false"
     inkscape:window-width="1916"
     inkscape:window-height="1041"
     inkscape:window-x="0"
     inkscape:window-y="37"
     inkscape:window-maximized="0"
     inkscape:snap-bbox="true"
     inkscape:bbox-paths="true"
     inkscape:snap-page="true">
    <sodipodi:guide
       position="6.4794726,170.68591"
       orientation="164.20642,0"
       id="guide4341" />
    <sodipodi:guide
       position="6.4794726,6.4794896"
       orientation="0,164.20641"
       id="guide4343" />
    <sodipodi:guide
       position="170.68588,6.4794896"
       orientation="-164.20642,0"
       id="guide4345" />
    <sodipodi:guide
       position="170.68588,170.68591"
       orientation="0,-164.20641"
       id="guide4347" />
  </sodipodi:namedview>
  <metadata
     id="metadata18013">
    <rdf:RDF>
      <cc:Work
         rdf:about="">
        <dc:format>image/svg+xml</dc:format>
        <dc:type
           rdf:resource="http://purl.org/dc/dcmitype/StillImage" />
        <dc:title></dc:title>
      </cc:Work>
    </rdf:RDF>
  </metadata>
  <g
     inkscape:groupmode="layer"
     id="layer3"
     inkscape:label="Calque">
    <rect
       style="fill:#ffffff;stroke:none;stroke-width:0.50000000000000000;stroke-linecap:square;stroke-miterlimit:3.59999989999999981;stroke-opacity:1;stroke-dasharray:none;fill-opacity:1"
       id="rect3773"
       width="194.45436"
       height="229.80971"
       x="-8.586297"
       y="-15.268701" />
  </g>
  <g
     inkscape:label="Calque 1"
     inkscape:groupmode="layer"
     id="layer1"
     transform="translate(0,-875.19683)"
     style="display:inline">
    <path
       style="fill:#000000;fill-opacity:1;stroke:none"
       d="m 178.24805,875.19683 0,178.35357 -178.24805,0 0,-178.35357 178.24805,0 z m -99.660156,37.95703 c -0.957514,0 -1.746344,0.35972 -2.238284,1.00977 -0.27232,0.36017 -0.38774,0.71024 -0.43164,1.26367 l 1.25586,0 c 0.07906,-0.3426 0.15047,-0.50791 0.29102,-0.6836 0.24597,-0.30746 0.62328,-0.46679 1.080075,-0.46679 1.036576,0 1.660156,0.8435 1.660156,2.25781 0,1.39674 -0.59818,2.22266 -1.617187,2.22266 -0.816964,0 -1.334964,-0.46624 -1.414064,-1.28321 l -1.28125,0 c 0.07906,1.46702 1.14047,2.39063 2.73047,2.39063 1.783262,0 2.900391,-1.29208 2.900391,-3.34766 0,-2.07315 -1.125932,-3.36328 -2.935547,-3.36328 z m 10.689453,0.0547 a 7.5094039,7.5094039 0 0 0 -7.509766,7.50976 7.5094039,7.5094039 0 0 0 7.509766,7.50782 7.5094039,7.5094039 0 0 0 7.509765,-7.50782 7.5094039,7.5094039 0 0 0 -7.509765,-7.50976 z m -14.269527,0.0508 -1.31836,0 0,6.40234 1.31836,0 0,-6.40234 z m -2.00586,0 -5.13086,0 0,1.09766 1.87109,0 0,5.30468 1.31836,0 0,-5.30468 1.94141,0 0,-1.09766 z m -5.80079,0 -1.31835,0 0,6.40234 1.31835,0 0,-6.40234 z m -2.14648,0 -4.81445,0 0,1.09766 3.26758,4.20703 -3.26758,0 0,1.09765 4.81445,0 0,-1.09765 -3.27734,-4.20703 3.27734,0 0,-1.09766 z m -5.80078,0 -4.62891,0 0,1.09766 3.31055,0 0,1.44921 -3.06445,0 0,1.09766 3.06445,0 0,1.66016 -3.46875,0 0,1.09765 4.78711,0 0,-6.40234 z m -5.77148,0 -1.35157,0 -2.53906,4.35547 0,-4.35547 -1.31836,0 0,6.40234 1.31836,0 2.57422,-4.42578 0,4.42578 1.31641,0 0,-6.40234 z m 35.85937,2.25195 c 2.236436,0 4.050781,1.81208 4.050781,4.04883 0,2.23666 -1.839812,4.09766 -4.076172,4.09766 -1.079806,0 -2.088445,-0.43034 -2.814453,-1.11914 l 0.605469,-0.57618 c 0.551433,0.49974 1.36409,0.81513 2.212891,0.79493 1.715549,-0.0406 3.205078,-1.34972 3.205078,-3.2461 0,-1.86623 -1.483059,-3.15429 -3.199219,-3.15429 -0.872625,0 -1.712777,0.34256 -2.277344,0.92187 L 86.4668,916.70855 c 0.733873,-0.73991 1.750595,-1.19727 2.875,-1.19727 z m -3.529297,1.89063 0.638672,0.60937 c -0.242842,0.95388 0.08159,2.3229 1.306641,3.07227 1.002828,0.61345 1.877163,0.0738 1.845703,-1.10547 -0.02085,-0.79343 -0.415115,-2.30269 -1.332031,-2.09375 -1e-6,0 0.313221,0.0695 0.388671,0.18555 0.0068,0.18832 0.0037,1.10702 0.783203,1.56445 1e-6,0 0.12816,0.36604 0.06836,0.77734 l -0.01367,-0.008 c -1.587101,-1.02628 -1.510115,-2.4433 -1.382812,-2.6582 0.476821,-0.80389 2.072188,-0.0417 2.017578,2.1582 0.247348,0.17475 1.001963,0.56149 1.25,0.0527 0.404964,-0.83161 -0.666882,-1.83575 -0.675782,-1.84375 l 0.01172,-0.0117 0.203125,-0.26172 c 0.0027,0.003 0.0099,0.008 0.01953,0.0156 0.167928,0.14204 1.299064,1.12138 0.78711,2.36133 -0.148838,0.36043 -0.49374,0.58264 -0.923828,0.61914 -0.22192,0.0188 -0.48518,-0.016 -0.767579,-0.12109 -0.111344,0.59931 -1.271752,1.86741 -3.222656,0.42578 -0.973342,-0.71928 -1.542543,-2.2555 -1.001953,-3.73828 z m -50.691403,3.20898 -1.01367,0 0,0.74024 1.01367,0 0,-0.74024 z m 42.22461,0.6543 -1.39649,0 -0.99219,4.79687 -0.99218,-4.79687 -1.30078,0 -1.03711,4.80664 -0.95703,-4.80664 -1.39649,0 1.77539,6.4043 1.18555,0 1.07226,-4.99805 1.04493,4.99805 1.18554,0 1.8086,-6.4043 z m -10.67578,0 -1.45704,0 -2.21484,6.4043 1.35352,0 0.42187,-1.29102 2.39844,0 0.42969,1.29102 1.34375,0 -2.27539,-6.4043 z m -3.9668,0 -5.13086,0 0,1.09961 1.87109,0 0,5.30469 1.31836,0 0,-5.30469 1.94141,0 0,-1.09961 z m -5.3711,0 -5.1289,0 0,1.09961 1.87109,0 0,5.30469 1.31641,0 0,-5.30469 1.9414,0 0,-1.09961 z m -10.70312,0.32031 c -1.67764,0 -2.71484,1.32697 -2.71484,3.45117 0,2.01556 1.07376,3.33203 2.70312,3.33203 0.82071,0 1.41231,-0.28965 1.94336,-0.9414 l 0,3.29492 1.01367,0 0,-8.95508 -0.92969,0 0,0.95313 c -0.4707,-0.7483 -1.15871,-1.13477 -2.01562,-1.13477 z m -5.53711,0 c -1.55695,0 -2.37891,0.60412 -2.37891,1.72656 l 0,3.24024 c 0.40332,0.38029 0.82531,0.73869 1.25196,1.13867 0.42666,0.39998 1.06669,0.67773 1.86328,0.67773 1.27935,0 2.07422,-0.72451 2.07422,-1.87109 0,-0.82071 -0.37315,-1.38772 -1.10938,-1.68945 -0.38621,-0.15691 -0.60316,-0.20568 -2.02734,-0.38672 -0.79657,-0.0965 -1.05078,-0.27679 -1.05078,-0.69922 l 0,-0.26562 c 0,-0.60346 0.50691,-0.94141 1.41211,-0.94141 0.94141,0 1.39987,0.34866 1.48437,1.12109 l 1.01367,0 c -0.02414,-0.62761 -0.14392,-0.98858 -0.43359,-1.31445 -0.42241,-0.47071 -1.18234,-0.73633 -2.09961,-0.73633 z m -5.33203,0 c -0.13276,0 -0.21774,0.0111 -0.38672,0.0352 l 0,1.02734 c 0.70002,0.0121 1.00261,0.0832 1.31641,0.3125 0.48278,0.35002 0.71093,0.94246 0.71093,1.84766 l 0,0.46094 1.01368,0.98828 0,-4.49024 -0.92774,0 0,1.14649 c -0.57933,-0.9414 -1.07482,-1.32813 -1.72656,-1.32813 z m -4.49805,0 -0.002,0 c -1.46039,0 -2.28087,0.70022 -2.29297,1.94336 l 1.0625,0 c 0.02414,-0.66381 0.45893,-1.01367 1.26758,-1.01367 0.82071,0 1.33984,0.37379 1.33984,0.95312 0,0.44656 -0.35116,0.7112 -1.17187,0.9043 L 30.5,924.60308 c -1.2552,0.30173 -1.78711,0.82032 -1.78711,1.76172 0,1.46047 1.59046,2.0039 3.1836,2.0039 1.64389,0 3.19489,-0.4669 3.21289,-2.125 0.0038,-1.54452 -0.002,-3.09293 0,-4.63867 l -1.00195,0 0,4.60352 c -1e-5,0.53748 -0.14193,0.62755 -0.29883,0.80859 -0.25345,0.26552 -1.45298,0.42188 -1.9961,0.42188 -0.88106,0 -2.02734,-0.23786 -2.02734,-0.99024 0,-0.45863 0.25701,-0.71189 0.95703,-0.88086 l 0.94141,-0.22851 c 1.49659,-0.36208 2.0039,-0.83259 2.0039,-1.82227 0,-1.17073 -0.95333,-1.93164 -2.42578,-1.93164 z m 15.53711,0.94141 c 1.06209,0 1.76172,0.96469 1.76172,2.44922 0,1.48452 -0.69963,2.45117 -1.76172,2.45117 -1.09831,0 -1.83594,-0.97782 -1.83594,-2.41406 0,-1.50867 0.72556,-2.48633 1.83594,-2.48633 z m 19.16797,0.25 0.83594,2.5039 -1.66992,0 0.83398,-2.5039 z m -30.61133,0.83203 0,6.08984 1.34375,0 c -0.0311,-0.0699 -0.05893,-0.14059 -0.08203,-0.21289 -0.29526,-0.92554 0.21705,-1.67578 1.14258,-1.67578 0.92553,0 1.91568,0.75024 2.21094,1.67578 0.0231,0.0722 0.03933,0.14309 0.05273,0.21289 l 1.7207,0 -6.38867,-6.08984 z m 52.875002,0.48242 2.685547,0.32422 -0.0078,0.82422 -2.685547,-0.32422 0.0078,-0.82422 z m -48.515622,0.87305 c 0.33794,0.15691 0.55508,0.20478 1.61718,0.34961 1.07417,0.1569 1.52149,0.49633 1.52149,1.16015 0,0.63967 -0.45963,1.01368 -1.24414,1.01368 -0.59139,0 -1.08576,-0.19422 -1.4961,-0.56836 -0.30175,-0.27759 -0.39843,-0.48238 -0.39843,-0.82032 l 0,-1.13476 z m 48.498044,0.44726 2.6875,0.32422 -0.0098,0.82422 -2.685547,-0.32422 0.0078,-0.82422 z m -36.302734,0.40625 a 1.0532635,1.0532635 0 0 0 -1.05469,1.05274 1.0532635,1.0532635 0 0 0 1.05469,1.05273 1.0532635,1.0532635 0 0 0 1.05273,-1.05273 1.0532635,1.0532635 0 0 0 -1.05273,-1.05274 z m -8.64453,32.87696 -21.7168,0 c -1.86904,0 -3.38476,1.51571 -3.38476,3.38476 l 0,24.36914 c 0,1.86904 1.51572,3.38477 3.38476,3.38477 l 21.7168,0 c 1.86904,0 3.38476,-1.51573 3.38476,-3.38477 l 0,-24.36914 c 0,-1.86905 -1.51572,-3.38476 -3.38476,-3.38476 z m 0,0.70898 c 1.4887,0 2.67773,1.18707 2.67773,2.67578 l 0,24.36914 c 0,1.4887 -1.18903,2.67578 -2.67773,2.67578 l -21.7168,0 c -1.4887,0 -2.67773,-1.18708 -2.67773,-2.67578 l 0,-24.36914 c 0,-1.48871 1.18903,-2.67578 2.67773,-2.67578 l 21.7168,0 z m -5.94922,1.7793 c -0.30836,-0.0153 -0.62213,0.0723 -0.86914,0.25976 -0.74261,0.49704 -0.54624,1.49164 -0.55664,2.24414 -0.05012,1.01268 1.2097,1.72162 2.05469,1.16993 0.70014,-0.38022 0.7296,-1.2642 0.66211,-1.95899 0.15554,-0.80834 -0.43311,-1.70584 -1.29102,-1.71484 z m -3.2793,0 c -0.28514,-0.0137 -0.57585,0.0586 -0.8125,0.2207 -0.72508,0.43786 -0.63812,1.38209 -0.60742,2.10352 -0.13601,0.90532 0.77941,1.74431 1.66797,1.50195 0.33074,-0.18676 0.1413,0.2993 0.1875,0.49414 -0.21123,0.61111 0.46736,0.64013 0.86133,0.85547 l 0,-3.46094 c 0.15664,-0.81116 -0.43916,-1.70584 -1.29688,-1.71484 z m -3.26758,0 c -0.15109,-0.007 -0.30211,0.01 -0.44726,0.0527 -0.73565,0.19526 -1.10491,0.99712 -0.97852,1.71289 0.61517,0.2738 1.23046,0.54669 1.84571,0.82032 -0.06238,0.51389 -0.867,0.53451 -0.9668,0.0371 0.06215,-0.47674 -0.56529,-0.4565 -0.87891,-0.67187 0.0136,0.28782 -0.03498,0.5831 0.04102,0.86523 0.19988,0.8534 1.266,1.34083 2.01758,0.85352 0.69733,-0.38154 0.7248,-1.26162 0.6582,-1.95508 0.15532,-0.80832 -0.4331,-1.70584 -1.29102,-1.71484 z m -3.27148,0 c -0.47192,-0.0309 -0.9338,0.20866 -1.19727,0.59765 -0.4614,0.74391 -0.12771,1.6828 -0.23046,2.50196 -0.21132,0.61137 0.46736,0.63985 0.86132,0.85547 l 0,-2.49805 c -0.11187,-0.53027 0.67062,-0.81964 0.92774,-0.3457 0.18929,0.63018 6.6e-4,1.33505 0.06836,1.98828 -0.21123,0.6111 0.4654,0.64013 0.85937,0.85547 l 0,-2.24024 c 0.15554,-0.80834 -0.43115,-1.70584 -1.28906,-1.71484 z m 9.74219,0.86719 c 0.25415,-0.0224 0.49786,0.20477 0.50586,0.45703 -0.10661,0.51632 0.28586,1.36637 -0.34766,1.64062 -0.51055,0.17819 -0.78021,-0.46464 -0.64648,-0.875 -0.01855,-0.41569 -0.1317,-1.19645 0.48828,-1.22265 z m -3.27344,0 c 0.33718,-0.0214 0.55916,0.31044 0.50586,0.62304 -0.07754,0.46931 0.24804,1.27049 -0.36719,1.48242 -0.50647,0.15295 -0.75579,-0.48107 -0.62695,-0.88281 -0.01617,-0.41603 -0.13553,-1.19585 0.48828,-1.22265 z m -3.27344,0 c 0.2317,-0.0201 0.45435,0.16522 0.49805,0.38867 0.1612,0.6001 -0.37597,0.21307 -0.71484,0.0703 -0.49409,-0.0444 -0.04437,-0.49428 0.21679,-0.45898 z m 2.6875,4.6289 -0.19726,0 -0.18164,0 -0.57227,0 -0.18164,0 -0.57031,0 -0.1836,0 -0.19726,0 c -0.05013,0 -0.09842,0.0405 -0.10742,0.0898 l -0.03516,0.19335 c -0.009,0.0493 -0.0242,0.13029 -0.0332,0.17969 l -0.32032,1.72071 c -0.0093,0.0493 -0.05581,0.10138 -0.10351,0.11718 l -1.4043,0.57422 c -0.04511,0.0221 -0.11485,0.0168 -0.15625,-0.0117 l -1.43555,-0.98437 -0.15039,-0.10352 -0.16211,-0.11133 c -0.04139,-0.0284 -0.10522,-0.0218 -0.14062,0.0137 l -0.13867,0.13867 -0.12891,0.1289 -0.4043,0.4043 -0.1289,0.12891 -0.4043,0.40234 -0.1289,0.13086 -0.13868,0.13867 c -0.0356,0.0355 -0.04187,0.0973 -0.01367,0.13867 l 0.11133,0.16211 c 0.02827,0.0415 0.07512,0.11095 0.10352,0.15235 l 0.96484,1.40429 c 0.0286,0.0415 0.03286,0.11155 0.0098,0.15625 l -0.61914,1.44727 c -0.01644,0.0475 -0.07169,0.0945 -0.12109,0.10352 l -1.65039,0.30664 c -0.0494,0.009 -0.13029,0.0242 -0.17969,0.0332 l -0.19336,0.0371 c -0.0494,0.009 -0.08993,0.0571 -0.08984,0.10742 l 0,0.19727 0,0.18164 0,0.57226 0,0.18164 0,0.57032 0,0.18359 0,0.19531 c 0,0.0502 0.04044,0.10038 0.08984,0.10938 l 0.19336,0.0352 c 0.0494,0.009 0.13029,0.0242 0.17969,0.0332 l 1.60156,0.29882 c 0.04934,0.009 0.10199,0.0556 0.11719,0.10352 l 0.61523,1.53906 c 0.0221,0.0451 0.01669,0.11681 -0.01171,0.15821 l -0.90625,1.32031 c -0.02836,0.0414 -0.07512,0.10909 -0.10352,0.15039 l -0.11133,0.16211 c -0.0284,0.0414 -0.02173,0.10522 0.01367,0.14062 l 0.13868,0.13867 0.1289,0.12891 0.4043,0.4043 0.1289,0.1289 0.40235,0.40235 0.13086,0.13086 0.13867,0.13867 c 0.03542,0.0355 0.09727,0.0401 0.13867,0.0117 l 0.16406,-0.11133 c 0.04118,-0.0284 0.10899,-0.0733 0.15039,-0.10156 l 1.29102,-0.88867 c 0.04136,-0.0281 0.111,-0.0293 0.1543,-0.004 l 0.26758,0.15039 c 0.0442,0.0237 0.1172,0.0631 0.1621,0.0859 l 0.27735,0.14062 c 0.04482,0.0229 0.09789,0.003 0.11719,-0.043 l 0.11914,-0.28711 c 0.0192,-0.0464 0.05101,-0.12352 0.07031,-0.16992 l 1.12109,-2.70898 c 0.0192,-0.0462 0.05112,-0.12157 0.07032,-0.16797 l 0.07812,-0.19141 c 0.0192,-0.0463 -2.7e-4,-0.10661 -0.04297,-0.13281 l -0.17578,-0.10742 c -0.03275,-0.02 -0.07858,-0.0545 -0.11328,-0.0859 -0.63907,-0.40934 -1.0625,-1.1262 -1.0625,-1.94141 0,-1.27212 1.03061,-2.30273 2.30273,-2.30273 1.27203,0 2.30469,1.03061 2.30469,2.30273 0,0.81512 -0.42538,1.53207 -1.06445,1.94141 -0.03475,0.0314 -0.07863,0.066 -0.11133,0.0859 l -0.17773,0.10742 c -0.04281,0.0262 -0.06032,0.0864 -0.04102,0.13281 l 0.07812,0.19141 c 0.0193,0.0463 0.05102,0.12177 0.07032,0.16797 l 1.12109,2.70898 c 0.0193,0.0464 0.05101,0.12352 0.07031,0.16992 l 0.11914,0.28711 c 0.01922,0.0468 0.07044,0.0658 0.11524,0.043 l 0.2793,-0.14062 c 0.04474,-0.0228 0.11595,-0.0622 0.16015,-0.0859 l 0.26953,-0.15039 c 0.04318,-0.0257 0.1129,-0.0245 0.1543,0.004 l 1.29102,0.88867 c 0.04146,0.0283 0.10899,0.0732 0.15039,0.10156 l 0.16211,0.11133 c 0.04139,0.0284 0.10522,0.0237 0.14062,-0.0117 l 0.13867,-0.13867 0.12891,-0.13086 0.4043,-0.40235 0.1289,-0.1289 0.4043,-0.4043 0.1289,-0.12891 0.13868,-0.13867 c 0.0355,-0.0355 0.04197,-0.0992 0.01367,-0.14062 l -0.11133,-0.16211 c -0.02826,-0.0413 -0.07501,-0.10889 -0.10352,-0.15039 l -0.90624,-1.32031 c -0.0285,-0.0414 -0.03382,-0.11321 -0.01172,-0.15821 l 0.61523,-1.53906 c 0.01507,-0.0479 0.06779,-0.0945 0.11719,-0.10352 l 1.60156,-0.29882 c 0.0494,-0.009 0.13029,-0.0242 0.17969,-0.0332 l 0.19336,-0.0352 c 0.0495,-0.009 0.08984,-0.0592 0.08984,-0.10938 l 0,-0.19531 0,-0.18359 0,-0.57032 0,-0.18164 0,-0.57226 0,-0.18164 0,-0.19727 c 0,-0.0503 -0.04044,-0.0984 -0.08984,-0.10742 l -0.19336,-0.0371 c -0.04939,-0.009 -0.13029,-0.0242 -0.17969,-0.0332 L 38.4668,973.3941 c -0.0494,-0.009 -0.10459,-0.056 -0.12109,-0.10352 l -0.61914,-1.44727 c -0.0228,-0.0446 -0.01864,-0.11475 0.0098,-0.15625 l 0.96484,-1.40429 c 0.02837,-0.0415 0.07522,-0.11085 0.10352,-0.15235 l 0.11133,-0.16211 c 0.0284,-0.0414 0.02183,-0.10317 -0.01367,-0.13867 l -0.13868,-0.13867 -0.1289,-0.13086 -0.4043,-0.40234 -0.1289,-0.12891 -0.4043,-0.4043 -0.12891,-0.1289 -0.13867,-0.13867 c -0.03542,-0.0356 -0.09922,-0.0421 -0.14062,-0.0137 l -0.16211,0.11133 c -0.04136,0.0285 -0.10889,0.075 -0.15039,0.10352 l -1.43555,0.98437 c -0.04136,0.0285 -0.11115,0.0338 -0.15625,0.0117 l -1.4043,-0.57422 c -0.04776,-0.0158 -0.09451,-0.0679 -0.10351,-0.11718 l -0.31836,-1.72071 c -0.0091,-0.0494 -0.02421,-0.13039 -0.03321,-0.17969 l -0.03711,-0.19335 c -0.0091,-0.0494 -0.05722,-0.0898 -0.10742,-0.0898 z m -0.84375,15.1543 c 5.5e-4,1.29566 -10e-4,2.59108 0.002,3.88672 -0.0017,1.01334 1.29073,1.66268 2.10742,1.06836 0.69269,-0.41754 0.65122,-1.31399 0.60742,-2.01172 0.13826,-0.80647 -0.5132,-1.6542 -1.35156,-1.625 -0.19224,-0.0714 -0.59491,0.25052 -0.50391,-0.10156 0.07155,-0.54825 0.0483,-1.03277 -0.60742,-1.10547 -0.08436,-0.037 -0.16951,-0.0744 -0.25391,-0.11133 z m 11.36133,0.0723 c -0.38106,-0.0539 -0.05909,0.96858 -0.16601,1.33399 -0.57621,-0.22897 -1.28734,-0.0128 -1.62696,0.50976 -0.46145,0.74383 -0.12572,1.68284 -0.22851,2.50196 -0.21132,0.61137 0.46736,0.63984 0.86132,0.85547 l 0,-2.4961 c -0.11125,-0.52565 0.67045,-0.82803 0.92774,-0.35156 0.19104,0.63136 -0.0027,1.33801 0.06641,1.99219 -0.21131,0.61128 0.46736,0.63989 0.86132,0.85547 l 0,-4.05664 c 0.07161,-0.54835 0.04836,-1.03297 -0.60742,-1.10547 l -0.0059,-0.002 -0.08203,-0.0371 z m -12.34375,1.1504 0.0039,2.54296 c 0.08582,0.18329 -0.01604,0.7468 -0.30078,0.49024 -0.1143,-0.70303 -0.005,-1.45756 -0.04493,-2.17774 0.21041,-0.6113 -0.46729,-0.64009 -0.86132,-0.85546 0.001,0.81853 0.0029,1.63652 0.0039,2.45507 0.03994,0.18314 0.0574,0.81759 -0.28711,0.59375 -0.1445,-0.69708 -0.0074,-1.47089 -0.05664,-2.19336 0.21041,-0.61124 -0.4694,-0.63991 -0.86328,-0.85546 l 0,2.92578 c -0.03921,0.79493 0.97148,1.32524 1.61133,0.86132 0.4492,0.2629 1.19382,0.23526 1.49219,-0.29101 0.36715,-0.69276 0.06546,-1.53387 0.16406,-2.2793 0.07161,-0.54836 0.04837,-1.03492 -0.60742,-1.10742 -0.08442,-0.037 -0.16951,-0.0725 -0.25391,-0.10937 z m 8.62891,0.0957 c -0.5395,-0.0374 -1.05921,0.28638 -1.29102,0.76953 -0.3017,0.82474 -0.04251,1.74205 -0.12891,2.59961 -0.08449,0.32493 0.98064,0.76006 0.86133,0.34766 0.77899,0.4539 2.02313,-0.17851 1.85743,-1.13868 -0.1221,-0.88659 -1.21429,-0.96538 -1.84766,-1.30859 0.07539,-0.56616 0.99137,-0.49967 0.98437,0.0703 -0.0478,0.32542 0.78153,0.5622 0.86133,0.4707 0.16133,-0.82143 -0.40758,-1.79484 -1.29687,-1.81054 z m -3.10743,0 c -0.81195,-0.0647 -1.50478,0.68501 -1.42578,1.48437 0.34638,0.0808 1.04538,0.70248 0.86133,-0.0273 -0.11177,-0.52789 0.67078,-0.82129 0.92774,-0.34961 0.19031,0.63127 -10e-4,1.33766 0.0664,1.99219 -0.2113,0.61128 0.46738,0.63989 0.86133,0.85547 l 0,-2.24024 c 0.15564,-0.80832 -0.43313,-1.70584 -1.29102,-1.71484 z m -9.3457,0 c -0.53936,-0.0374 -1.05933,0.28644 -1.29101,0.76953 -0.30184,0.82473 -0.04261,1.74204 -0.12891,2.59961 -0.08447,0.32495 0.98084,0.76034 0.86133,0.34766 0.7789,0.45426 2.02504,-0.17846 1.85937,-1.13868 -0.12213,-0.88656 -1.21429,-0.96541 -1.84765,-1.30859 0.07525,-0.56908 0.98942,-0.49671 0.98242,0.0703 -0.0478,0.32542 0.78348,0.5622 0.86328,0.4707 0.1613,-0.82144 -0.40955,-1.79484 -1.29883,-1.81054 z m -3.10547,0 c -0.81196,-0.0647 -1.50673,0.68501 -1.42773,1.48437 0.34637,0.0808 1.04537,0.70248 0.86133,-0.0273 -0.10884,-0.51712 0.64819,-0.82175 0.91797,-0.36523 0.21611,0.62914 0.0026,1.3501 0.07812,2.00781 -0.2113,0.61128 0.46542,0.63989 0.85938,0.85547 l 0,-2.24024 c 0.15546,-0.80822 -0.43118,-1.70684 -1.28907,-1.71484 z m -3.11328,0 c -0.15132,-0.007 -0.30391,0.0115 -0.44922,0.0547 -0.73548,0.19529 -1.10486,0.99544 -0.97851,1.71093 0.61517,0.2738 1.23046,0.54669 1.8457,0.82032 -0.06265,0.51327 -0.8684,0.53562 -0.9668,0.0352 0.06299,-0.47587 -0.56702,-0.45431 -0.8789,-0.66992 0.0138,0.28796 -0.03353,0.58499 0.04297,0.86719 0.19988,0.8507 1.2603,1.33914 2.01171,0.85547 0.70042,-0.37996 0.72961,-1.26227 0.66211,-1.95703 0.15556,-0.80832 -0.43114,-1.7088 -1.28906,-1.7168 z m 12.375,0.86719 c 0.286,-0.0232 0.53771,0.25215 0.50781,0.5332 -0.09733,0.4917 0.26734,1.31085 -0.34765,1.56445 -0.51337,0.17915 -0.78089,-0.46399 -0.64844,-0.875 -0.01564,-0.41627 -0.1349,-1.19625 0.48828,-1.22265 z m -12.45117,0 c 0.23275,-0.0205 0.45399,0.16781 0.49609,0.39257 0.1592,0.60004 -0.37861,0.20475 -0.71484,0.0664 -0.49341,-0.0455 -0.0453,-0.49178 0.21875,-0.45898 z m 18.39062,1.4082 c 0.13657,-0.003 0.32937,0.0765 0.57422,0.23437 0.33959,0.0782 0.21314,0.51497 -0.10156,0.48047 -0.36189,-0.0202 -0.61663,-0.31081 -0.67383,0.25196 l 0,-0.23438 c -0.09925,-0.49105 -0.02643,-0.72724 0.20117,-0.73242 z m -12.45117,0 c 0.13698,-0.003 0.3294,0.0769 0.57422,0.23437 0.33856,0.0792 0.20954,0.51507 -0.10351,0.48047 -0.36213,-0.0206 -0.61663,-0.30907 -0.67383,0.25391 l 0,-0.23633 c -0.09961,-0.49201 -0.02518,-0.7278 0.20312,-0.73242 z m 142.40039,9.25586 -0.78711,0 0,2.59375 c 0,0.462 -0.23696,0.68164 -0.73046,0.68164 -0.4935,0 -0.73047,-0.21964 -0.73047,-0.68164 l 0,-2.59375 -0.78711,0 0,2.59375 c 0,0.4305 0.11579,0.73384 0.37304,0.96484 0.27825,0.252 0.68254,0.38867 1.14454,0.38867 0.462,0 0.86628,-0.13667 1.14453,-0.38867 0.25725,-0.231 0.37304,-0.53434 0.37304,-0.96484 l 0,-2.59375 z m -16.88867,0 -0.73437,0 0,0.65625 0.73437,0 0,-0.65625 z m -9.3457,0 -0.73438,0 0,3.82617 0.73438,0 0,-0.28711 c 0.18375,0.27825 0.4295,0.4082 0.78125,0.4082 0.3465,0 0.69442,-0.17817 0.88867,-0.45117 0.189,-0.273 0.30469,-0.66167 0.30469,-1.04492 0,-0.85575 -0.51611,-1.50586 -1.19336,-1.50586 -0.35175,0 -0.5975,0.13056 -0.78125,0.41406 l 0,-1.35937 z m 4.90039,0.28906 -0.73633,0 0,0.75977 -0.4082,0 0,0.48828 0.4082,0 0,1.54492 c 0,0.25195 -0.046,0.30859 -0.24023,0.30859 -0.0525,0 -0.0945,-0.005 -0.16797,-0.0156 l 0,0.51562 c 0.13125,0.042 0.26108,0.0566 0.42383,0.0566 0.483,0 0.7207,-0.21976 0.7207,-0.66601 l 0,-1.74414 0.36133,0 0,-0.48828 -0.36133,0 0,-0.75977 z m 16.02148,0.65625 c -0.60375,0 -0.94922,0.35572 -0.94922,0.98047 l 0,1.90039 0.73438,0 0,-1.74805 c 0,-0.336 0.15766,-0.50781 0.47266,-0.50781 0.357,0 0.59375,0.21869 0.59375,0.55469 l 0,1.70117 0.73437,0 0,-2.83398 -0.73437,0 0,0.41015 c -0.21,-0.315 -0.46832,-0.45703 -0.85157,-0.45703 z m -4.57617,0 c -0.34125,0 -0.69186,0.17756 -0.88086,0.44531 -0.189,0.2625 -0.30469,0.66155 -0.30469,1.06055 0,0.861 0.50305,1.50195 1.18555,1.50195 0.357,0 0.61056,-0.14789 0.78906,-0.46289 l 0,1.48047 0.73438,0 0,-3.97851 -0.73438,0 0,0.41992 c -0.1785,-0.315 -0.43206,-0.4668 -0.78906,-0.4668 z m -3.23437,0 c -0.021,0 -0.0479,-0.001 -0.0899,0.004 l 0,0.74609 c 0.0998,-0.016 0.15172,-0.0215 0.23047,-0.0215 0.4305,0 0.64649,0.21598 0.64649,0.64648 l 0,1.50586 0.73437,0 0,-2.83398 -0.73437,0 0,0.55664 c -0.1575,-0.38325 -0.45111,-0.60352 -0.78711,-0.60352 z m -1.76758,0 c -0.88725,0 -1.4082,0.56074 -1.4082,1.52148 0,0.90826 0.54134,1.48047 1.40234,1.48047 0.8715,0 1.40234,-0.56745 1.40234,-1.50195 0,-0.92925 -0.53023,-1.5 -1.39648,-1.5 z m -4.51367,0 c -0.57225,0 -1.02975,0.30972 -1.21875,0.82422 -0.0683,0.1995 -0.10938,0.46064 -0.10938,0.74414 0,0.0368 5.6e-4,0.0639 0.006,0.12695 l 1.90039,0 c -0.0105,0.26775 -0.0372,0.39305 -0.10547,0.49805 -0.105,0.15755 -0.27242,0.24805 -0.48242,0.24805 -0.26775,0 -0.47325,-0.13167 -0.5625,-0.35743 l -0.72461,0 c 0.16275,0.55652 0.67725,0.91797 1.3125,0.91797 0.80325,0 1.29688,-0.55659 1.29688,-1.46484 0,-0.95025 -0.49875,-1.53711 -1.3125,-1.53711 z m -9.3418,0 c -0.57225,0 -1.0278,0.30972 -1.2168,0.82422 -0.0683,0.1995 -0.11133,0.46064 -0.11133,0.74414 0,0.0368 6.6e-4,0.0639 0.006,0.12695 l 1.90039,0 c -0.0105,0.26775 -0.0372,0.39305 -0.10546,0.49805 -0.105,0.15755 -0.27243,0.24805 -0.48243,0.24805 -0.26775,0 -0.47325,-0.13167 -0.5625,-0.35743 l -0.72461,0 c 0.16275,0.55652 0.67725,0.91797 1.3125,0.91797 0.80325,0 1.29688,-0.55659 1.29688,-1.46484 0,-0.95025 -0.49875,-1.53711 -1.3125,-1.53711 z m 11.85742,0.0469 -0.73437,0 0,3.32812 c 0,0.462 0.18973,0.65039 0.64648,0.65039 0.105,0 0.28855,-0.01 0.43555,-0.0254 l 0,-0.58789 c -0.0525,0.016 -0.0836,0.0215 -0.13086,0.0215 -0.1575,0 -0.2168,-0.058 -0.2168,-0.2207 l 0,-3.16601 z m -15.40039,0.10546 -0.78711,0 0,0.76563 0.78711,0 0,-0.76563 z m 12.89453,0.40821 c 0.3255,0 0.50939,0.21598 0.55664,0.64648 l -1.1289,0 c 0.0157,-0.19425 0.047,-0.30515 0.11523,-0.41015 0.105,-0.14705 0.27328,-0.23633 0.45703,-0.23633 z m -9.33984,0 c 0.3255,0 0.50744,0.21598 0.55469,0.64648 l -1.12696,0 c 0.0157,-0.19425 0.047,-0.30515 0.11524,-0.41015 0.105,-0.14705 0.27328,-0.23633 0.45703,-0.23633 z m 13.83789,0.0312 c 0.399,0 0.66601,0.36745 0.66601,0.9082 0,0.54075 -0.26701,0.9082 -0.66601,0.9082 -0.39375,0 -0.66602,-0.36623 -0.66602,-0.89648 0,-0.5565 0.26177,-0.91992 0.66602,-0.91992 z m 5.17578,0.0215 c 0.3675,0 0.62109,0.36233 0.62109,0.89258 0,0.53025 -0.25359,0.88672 -0.62109,0.88672 -0.36225,0 -0.61914,-0.3605 -0.61914,-0.875 0,-0.54075 0.24639,-0.9043 0.61914,-0.9043 z m -15.89453,0 c 0.3675,0 0.61914,0.36758 0.61914,0.89258 0,0.51975 -0.25164,0.88281 -0.61914,0.88281 -0.3675,0 -0.61914,-0.35659 -0.61914,-0.87109 0,-0.54075 0.24639,-0.9043 0.61914,-0.9043 z m -6.67383,1.50196 -0.78711,0 0,0.76562 0.78711,0 0,-0.76562 z m 30.40039,2.99413 c -0.7934,0 -1.44785,0.2993 -1.85547,0.8379 -0.22564,0.2984 -0.31908,0.5903 -0.35547,1.0489 l 1.03907,0 c 0.0655,-0.2839 0.12377,-0.4228 0.24023,-0.5684 0.20381,-0.2547 0.51798,-0.3848 0.89649,-0.3848 0.85891,0 1.375,0.6973 1.375,1.8692 0,1.1574 -0.4955,1.8418 -1.33985,1.8418 -0.67694,0 -1.10636,-0.3856 -1.17187,-1.0625 l -1.0625,0 c 0.0655,1.2155 0.94619,1.9804 2.26367,1.9804 1.47762,0 2.40234,-1.0702 2.40234,-2.7734 0,-1.7179 -0.93218,-2.7891 -2.43164,-2.7891 z m -30.76367,0 c -0.7934,0 -1.44785,0.2993 -1.85547,0.8379 -0.22564,0.2984 -0.32103,0.5903 -0.35742,1.0489 l 1.04101,0 c 0.0655,-0.2839 0.12378,-0.4228 0.24024,-0.5684 0.20381,-0.2547 0.51603,-0.3848 0.89453,-0.3848 0.85891,0 1.37695,0.6973 1.37695,1.8692 0,1.1574 -0.49549,1.8418 -1.33984,1.8418 -0.67694,0 -1.10637,-0.3856 -1.17188,-1.0625 l -1.0625,0 c 0.0655,1.2155 0.94619,1.9804 2.26368,1.9804 1.47761,0 2.40234,-1.0702 2.40234,-2.7734 0,-1.7179 -0.93219,-2.7891 -2.43164,-2.7891 z m 27.76758,0.088 -1.01758,0 0,0.9102 1.01758,0 0,-0.9102 z m -77.212892,0 -3.726563,0 0,0.9102 2.634766,0 0,1.2012 -2.322266,0 0,0.9101 2.322266,0 0,2.2852 1.091797,0 0,-5.3067 z m -8.392579,0 -1.019531,0 0,1.8848 c -0.247478,-0.393 -0.596308,-0.5742 -1.083988,-0.5742 -0.48041,0 -0.96114,0.247 -1.23047,0.6328 -0.26204,0.3785 -0.42187,0.9178 -0.42187,1.4492 0,1.1864 0.71336,2.082 1.65234,2.082 0.49496,0 0.83651,-0.1826 1.083988,-0.5683 l 0,0.4004 1.019531,0 0,-5.3067 z m -8.560549,0 -1.01758,0 0,5.3067 1.01758,0 0,-5.3067 z m -2.01758,0 -1.01953,0 0,0.9102 1.01953,0 0,-0.9102 z m -31.68554,0 -1.01758,0 0,1.9434 c -0.28388,-0.4295 -0.64814,-0.6328 -1.15039,-0.6328 -0.32755,0 -0.65521,0.1096 -0.88086,0.2988 -0.26932,0.2257 -0.40039,0.5749 -0.40039,1.0625 l 0,2.6348 1.01953,0 0,-2.4024 c 0,-0.2548 0.02793,-0.3553 0.11523,-0.4863 0.11647,-0.1602 0.2914,-0.2402 0.50977,-0.2402 0.45857,0 0.78711,0.3202 0.78711,0.7714 l 0,2.3575 1.01758,0 0,-5.3067 z m -12.49414,0 -1.01953,0 0,2.9043 -1.28907,-1.5273 -1.15625,0 1.33985,1.4844 -1.43555,2.4453 1.19531,0 0.9375,-1.7325 0.40821,0.4434 0,1.2891 1.01953,0 0,-5.3067 z m -4.19727,0 -3.83594,0 0,0.9102 2.74414,0 0,1.2012 -2.54101,0 0,0.9101 2.54101,0 0,1.375 -2.875,0 0,0.9102 3.9668,0 0,-5.3067 z m 142.42578,0.4004 -1.01953,0 0,1.0567 -0.56641,0 0,0.6757 0.56641,0 0,2.1407 c 0,0.3495 -0.0647,0.4297 -0.33398,0.4297 -0.0728,0 -0.13052,-0.01 -0.23243,-0.022 l 0,0.7129 c 0.18198,0.058 0.36225,0.08 0.5879,0.08 0.66966,0 0.99804,-0.307 0.99804,-0.9257 l 0,-2.4161 0.50196,0 0,-0.6757 -0.50196,0 0,-1.0567 z m -37.24804,0 -1.01758,0 0,1.0567 -0.56836,0 0,0.6757 0.56836,0 0,2.1407 c 0,0.3495 -0.0666,0.4297 -0.33594,0.4297 -0.0728,0 -0.13052,-0.01 -0.23242,-0.022 l 0,0.7129 c 0.18197,0.058 0.3642,0.08 0.58984,0.08 0.66966,0 0.9961,-0.307 0.9961,-0.9257 l 0,-2.4161 0.50195,0 0,-0.6757 -0.50195,0 0,-1.0567 z m -12.89649,0.9082 c -0.0291,0 -0.0668,-2e-4 -0.125,0.01 l 0,1.0332 c 0.1383,-0.019 0.21113,-0.029 0.32031,-0.029 0.59688,0 0.89649,0.2976 0.89649,0.8945 l 0,2.0899 1.01758,0 0,-3.9297 0,0 -1.01758,0 0,0.7715 c -0.21837,-0.5314 -0.62595,-0.836 -1.0918,-0.836 z m -52.05664,0 c -0.02914,0 -0.0668,-2e-4 -0.125,0.01 l 0,1.0332 c 0.1383,-0.019 0.21113,-0.029 0.32031,-0.029 0.59687,0 0.89649,0.2976 0.89649,0.8945 l 0,2.0899 1.01953,0 0,-3.9297 0,0 -1.01953,0 0,0.7715 c -0.21837,-0.5314 -0.62595,-0.836 -1.0918,-0.836 z m 98.18359,0 c -1.23013,0 -1.95117,0.7792 -1.95117,2.1113 0,1.2592 0.74962,2.0527 1.94336,2.0527 1.2083,0 1.94336,-0.7864 1.94336,-2.082 0,-1.2884 -0.73453,-2.082 -1.93555,-2.082 z m -8.29101,0 c -0.7934,0 -1.42546,0.4292 -1.6875,1.1426 -0.0946,0.2766 -0.1543,0.6401 -0.1543,1.0332 0,0.051 5.1e-4,0.089 0.008,0.1757 l 2.63477,0 c -0.0146,0.3712 -0.0499,0.5458 -0.14453,0.6914 -0.14558,0.2183 -0.37877,0.3418 -0.66992,0.3418 -0.37123,0 -0.65556,-0.1811 -0.7793,-0.4941 l -1.00391,0 c 0.22565,0.7716 0.93761,1.2734 1.81836,1.2734 1.11368,0 1.79883,-0.7719 1.79883,-2.0312 0,-1.3175 -0.69208,-2.1328 -1.82031,-2.1328 z m -4.72852,0 c -0.83707,0 -1.3164,0.4952 -1.3164,1.3613 l 0,2.6348 1.01757,0 0,-2.4239 c 0,-0.4658 0.21952,-0.705 0.65625,-0.705 0.49497,0 0.82227,0.3057 0.82227,0.7714 l 0,2.3575 1.01953,0 0,-3.9297 -1.01953,0 0,0.5664 c -0.29116,-0.4368 -0.64833,-0.6328 -1.17969,-0.6328 z m -3.75781,0 c -1.05544,0 -1.69638,0.5022 -1.71094,1.332 l 0.98242,0 c 0.007,-0.3566 0.24865,-0.5312 0.73633,-0.5312 0.35667,0 0.58789,0.1448 0.58789,0.3632 0,0.1601 -0.0716,0.2197 -0.35547,0.3067 l -1.28906,0.3711 c -0.5168,0.1528 -0.77148,0.4807 -0.77148,0.9902 0,0.3858 0.17564,0.7495 0.46679,0.9824 0.29116,0.233 0.70604,0.3496 1.25196,0.3496 1.19374,0 1.82635,-0.4516 1.85547,-1.3105 l -0.99805,0 c -0.0437,0.2111 -0.0861,0.2911 -0.19531,0.3711 -0.13102,0.087 -0.34148,0.1387 -0.60352,0.1387 -0.47313,0 -0.75781,-0.1466 -0.75781,-0.3868 0,-0.1602 0.087,-0.2403 0.3418,-0.3203 l 1.21484,-0.3769 c 0.3785,-0.1238 0.50233,-0.1899 0.64062,-0.3282 0.1383,-0.1527 0.21875,-0.3786 0.21875,-0.6406 0,-0.808 -0.61802,-1.3105 -1.61523,-1.3105 z m -9.32031,0 c -1.06272,0 -1.60742,0.4083 -1.60742,1.209 l 0,2.1836 c 0,0.2038 -0.0504,0.313 -0.23243,0.4804 l 0,0.1231 1.10547,0 c 0.0946,-0.1165 0.11719,-0.1887 0.11719,-0.3926 0.35667,0.3713 0.75663,0.5605 1.19336,0.5605 0.34939,0 0.69037,-0.1382 0.91602,-0.3711 0.18196,-0.1965 0.27734,-0.4736 0.27734,-0.8085 0,-0.706 -0.37741,-1.1054 -1.15625,-1.2364 l -0.4082,-0.074 c -0.50225,-0.08 -0.50233,-0.079 -0.64063,-0.1523 -0.10918,-0.058 -0.17578,-0.1757 -0.17578,-0.3067 0,-0.2621 0.19678,-0.3926 0.58984,-0.3926 0.50225,0 0.66976,0.1315 0.72071,0.5391 l 0.98242,0 c -0.0655,-0.9098 -0.61892,-1.3613 -1.68164,-1.3613 z m -4.61133,0 c -0.47313,0 -0.96061,0.2479 -1.22266,0.6191 -0.26204,0.3639 -0.42187,0.9175 -0.42187,1.4707 0,1.1938 0.69827,2.0821 1.64453,2.0821 0.49497,0 0.84431,-0.204 1.0918,-0.6407 l 0,2.0528 1.01953,0 0,-5.5176 -1.01953,0 0,0.582 c -0.24749,-0.4367 -0.59683,-0.6484 -1.0918,-0.6484 z m -6.32812,0 c -0.79341,0 -1.42546,0.4292 -1.6875,1.1426 -0.0946,0.2766 -0.1543,0.6401 -0.1543,1.0332 0,0.051 5.1e-4,0.089 0.008,0.1757 l 2.63477,0 c -0.0146,0.3712 -0.0499,0.5458 -0.14453,0.6914 -0.14558,0.2183 -0.37877,0.3418 -0.66993,0.3418 -0.37122,0 -0.65555,-0.1811 -0.77929,-0.4941 l -1.00391,0 c 0.22565,0.7716 0.93761,1.2734 1.81836,1.2734 1.11367,0 1.79883,-0.7719 1.79883,-2.0312 0,-1.3175 -0.69208,-2.1328 -1.82031,-2.1328 z m -11.31641,0 c -1.05544,0 -1.69443,0.5022 -1.70899,1.332 l 0.98243,0 c 0.007,-0.3566 0.24668,-0.5312 0.73437,-0.5312 0.35667,0 0.58985,0.1448 0.58985,0.3632 0,0.1601 -0.0735,0.2197 -0.35743,0.3067 l -1.28711,0.3711 c -0.5168,0.1528 -0.77148,0.4807 -0.77148,0.9902 0,0.3858 0.17369,0.7495 0.46484,0.9824 0.29116,0.233 0.70604,0.3496 1.25196,0.3496 1.19374,0 1.82831,-0.4516 1.85742,-1.3105 l -0.99805,0 c -0.0437,0.2111 -0.0881,0.2911 -0.19726,0.3711 -0.13102,0.087 -0.34148,0.1387 -0.60352,0.1387 -0.47313,0 -0.75781,-0.1466 -0.75781,-0.3868 0,-0.1602 0.089,-0.2403 0.34375,-0.3203 l 1.21484,-0.3769 c 0.3785,-0.1238 0.50233,-0.1899 0.64063,-0.3282 0.13829,-0.1527 0.21875,-0.3786 0.21875,-0.6406 0,-0.808 -0.61998,-1.3105 -1.61719,-1.3105 z m -28.591798,0 c -1.06272,0 -1.607422,0.4083 -1.607422,1.209 l 0,2.1836 c 0,0.2038 -0.05045,0.313 -0.232422,0.4804 l 0,0.1231 1.105469,0 c 0.09462,-0.1165 0.117187,-0.1887 0.117187,-0.3926 0.356667,0.3713 0.756626,0.5605 1.19336,0.5605 0.349388,0 0.690369,-0.1382 0.916015,-0.3711 0.181969,-0.1965 0.277344,-0.4736 0.277344,-0.8085 0,-0.706 -0.37936,-1.1054 -1.158203,-1.2364 l -0.40625,-0.074 c -0.502245,-0.08 -0.502326,-0.079 -0.640625,-0.1523 -0.109184,-0.058 -0.175781,-0.1757 -0.175781,-0.3067 0,-0.2621 0.196781,-0.3926 0.589844,-0.3926 0.502243,0 0.669753,0.1315 0.720703,0.5391 l 0.982421,0 c -0.06551,-0.9098 -0.618919,-1.3613 -1.68164,-1.3613 z m -8.507812,0 c -0.7934,0 -1.42741,0.4292 -1.68945,1.1426 -0.09466,0.2766 -0.15235,0.6401 -0.15235,1.0332 0,0.051 8.1e-4,0.089 0.0078,0.1757 l 2.63477,0 c -0.01456,0.3712 -0.05188,0.5458 -0.14648,0.6914 -0.14557,0.2183 -0.37681,0.3418 -0.66797,0.3418 -0.37122,0 -0.65556,-0.1811 -0.7793,-0.4941 l -1.00586,0 c 0.22565,0.7716 0.93956,1.2734 1.82031,1.2734 1.11367,0 1.79883,-0.7719 1.79883,-2.0312 0,-1.3175 -0.69208,-2.1328 -1.82031,-2.1328 z m -8.08984,0 c -0.7934,0 -1.42546,0.4292 -1.6875,1.1426 -0.09466,0.2766 -0.1543,0.6401 -0.1543,1.0332 0,0.051 8.1e-4,0.089 0.0078,0.1757 l 2.63477,0 c -0.01456,0.3712 -0.04993,0.5458 -0.14453,0.6914 -0.14558,0.2183 -0.37877,0.3418 -0.66993,0.3418 -0.37122,0 -0.65555,-0.1811 -0.77929,-0.4941 l -1.00391,0 c 0.22564,0.7716 0.93762,1.2734 1.81836,1.2734 1.11368,0 1.79883,-0.7719 1.79883,-2.0312 0,-1.3175 -0.69208,-2.1328 -1.82031,-2.1328 z m -34.10743,0 c -1.06272,0 -1.60937,0.4083 -1.60937,1.209 l 0,2.1836 c 0,0.2038 -0.05044,0.313 -0.23242,0.4804 l 0,0.1231 1.10547,0 c 0.09466,-0.1165 0.11718,-0.1887 0.11718,-0.3926 0.35667,0.3713 0.75663,0.5605 1.19336,0.5605 0.34939,0 0.69233,-0.1382 0.91797,-0.3711 0.182,-0.1965 0.27539,-0.4736 0.27539,-0.8085 0,-0.706 -0.37741,-1.1054 -1.15625,-1.2364 l -0.4082,-0.074 c -0.50225,-0.08 -0.50233,-0.079 -0.64063,-0.1523 -0.10919,-0.058 -0.17382,-0.1757 -0.17382,-0.3067 0,-0.2621 0.19678,-0.3926 0.58984,-0.3926 0.50225,0 0.66775,0.1315 0.71875,0.5391 l 0.98437,0 c -0.06551,-0.9098 -0.61892,-1.3613 -1.68164,-1.3613 z m -4.18359,0 c -0.98265,0 -1.62251,0.5743 -1.69531,1.5351 l 0.97461,0 c 0.11646,-0.5168 0.31361,-0.7129 0.72851,-0.7129 0.29116,0 0.51636,0.1177 0.63282,0.336 0.12374,0.233 0.19726,0.5818 0.19726,0.9531 0,0.7643 -0.31328,1.2305 -0.83008,1.2305 -0.39306,0 -0.59749,-0.1976 -0.72851,-0.7071 l -0.97461,0 c 0.09462,0.9389 0.75739,1.5293 1.71094,1.5293 1.16461,0 1.83984,-0.7571 1.83984,-2.0527 0,-1.3393 -0.68357,-2.1113 -1.85547,-2.1113 z m -13.51758,0 c -0.83707,0 -1.31836,0.4952 -1.31836,1.3613 l 0,2.6348 1.01953,0 0,-2.4239 c 0,-0.4658 0.21756,-0.705 0.6543,-0.705 0.49496,0 0.82227,0.3057 0.82227,0.7714 l 0,2.3575 1.01953,0 0,-3.9297 -1.01953,0 0,0.5664 c -0.29115,-0.4368 -0.64638,-0.6328 -1.17774,-0.6328 z m -3.75976,0 c -1.05544,0 -1.69634,0.5022 -1.71094,1.332 l 0.98437,0 c 0.00728,-0.3566 0.2467,-0.5312 0.73438,-0.5312 0.35667,0 0.58984,0.1448 0.58984,0.3632 0,0.1601 -0.07354,0.2197 -0.35742,0.3067 l -1.28711,0.3711 c -0.5168,0.1528 -0.77148,0.4807 -0.77148,0.9902 0,0.3858 0.17368,0.7495 0.46484,0.9824 0.29115,0.233 0.70603,0.3496 1.25195,0.3496 1.19374,0 1.82637,-0.4516 1.85547,-1.3105 l -0.99609,0 c -0.04367,0.2111 -0.08809,0.2911 -0.19727,0.3711 -0.13102,0.087 -0.34147,0.1387 -0.60351,0.1387 -0.47313,0 -0.75782,-0.1466 -0.75782,-0.3868 0,-0.1602 0.08704,-0.2403 0.3418,-0.3203 l 1.2168,-0.3769 c 0.3785,-0.1238 0.50233,-0.1899 0.64062,-0.3282 0.13827,-0.1527 0.21875,-0.3786 0.21875,-0.6406 0,-0.808 -0.61997,-1.3105 -1.61718,-1.3105 z m 155.26367,0.066 -1.01758,0 0,3.9297 1.01758,0 0,-3.9297 z m -8.47656,0 -1.1211,0 -0.86719,2.8594 -0.81445,-2.8575 -1.04883,0 1.61719,4.6504 c 0.16742,0.4659 0.29034,0.6336 0.57422,0.75 0.17469,0.073 0.48157,0.1231 0.73633,0.1231 0.12374,0 0.21042,-0.01 0.36328,-0.027 l 0,-0.7656 c -0.13102,0.034 -0.18946,0.045 -0.26953,0.045 -0.35667,0 -0.63282,-0.285 -0.63282,-0.6562 l 0,-0.022 0,-0.01 1.4629,-4.0898 z m -37.20704,0 -1.01757,0 0,2.5254 c 0,0.4731 -0.21952,0.7051 -0.65625,0.7051 -0.49497,0 -0.82227,-0.3057 -0.82227,-0.7715 l 0,-2.459 -1.01953,0 0,3.9297 1.01953,0 0,-0.4649 c 0.29116,0.4367 0.64833,0.6328 1.17969,0.6328 0.83707,0 1.3164,-0.4951 1.3164,-1.3613 l 0,-2.7363 z m -50.5,0 -1.01953,0 0,3.9297 1.01953,0 0,-3.9297 z m 81.75586,0.7129 c 0.4513,0 0.70598,0.2977 0.77149,0.8945 l -1.56641,0 c 0.0218,-0.2693 0.0655,-0.4208 0.16016,-0.5664 0.14558,-0.2038 0.38,-0.3281 0.63476,-0.3281 z m -28.74609,0 c 0.45129,0 0.70597,0.2977 0.77148,0.8945 l -1.5664,0 c 0.0218,-0.2693 0.0655,-0.4208 0.16015,-0.5664 0.14558,-0.2038 0.38001,-0.3281 0.63477,-0.3281 z m -48.41797,0 c 0.45129,0 0.70599,0.2977 0.77149,0.8945 l -1.56446,0 c 0.02184,-0.2693 0.06556,-0.4208 0.16016,-0.5664 0.14557,-0.2038 0.37805,-0.3281 0.63281,-0.3281 z m -8.08789,0 c 0.45129,0 0.70597,0.2977 0.77149,0.8945 l -1.56641,0 c 0.02183,-0.2693 0.06557,-0.4208 0.16015,-0.5664 0.1456,-0.2038 0.38,-0.3281 0.63477,-0.3281 z m 93.51953,0.043 c 0.5532,0 0.92383,0.51 0.92383,1.2598 0,0.7497 -0.37063,1.2598 -0.92383,1.2598 -0.54592,0 -0.92383,-0.5109 -0.92383,-1.2461 0,-0.7716 0.36336,-1.2735 0.92383,-1.2735 z m -30.46875,0.029 c 0.50953,0 0.85938,0.5032 0.85938,1.2383 0,0.7352 -0.34985,1.2285 -0.85938,1.2285 -0.50224,0 -0.85742,-0.5015 -0.85742,-1.2148 0,-0.7497 0.34062,-1.252 0.85742,-1.252 z m -50.85547,0 c 0.50953,0 0.859378,0.5016 0.859378,1.2149 0,0.7497 -0.342578,1.2461 -0.859378,1.2461 -0.50224,0 -0.85742,-0.5093 -0.85742,-1.2227 0,-0.7279 0.35518,-1.2383 0.85742,-1.2383 z m 54.62305,1.2871 c 0.11646,0.059 0.16037,0.074 0.42969,0.125 l 0.34961,0.067 c 0.42217,0.087 0.58203,0.2314 0.58203,0.5371 0,0.2911 -0.21063,0.4746 -0.55274,0.4746 -0.5168,0 -0.80859,-0.3362 -0.80859,-0.9258 l 0,-0.2774 z m -50.847656,0 c 0.116463,0.059 0.160367,0.074 0.429687,0.125 l 0.34961,0.067 c 0.422177,0.087 0.582031,0.2314 0.582031,0.5371 0,0.2911 -0.210627,0.4746 -0.552734,0.4746 -0.516804,0 -0.808594,-0.3362 -0.808594,-0.9258 l 0,-0.2774 z m -50.705074,0 c 0.11646,0.059 0.16037,0.074 0.42968,0.125 l 0.34766,0.067 c 0.42218,0.087 0.58398,0.2314 0.58398,0.5371 0,0.2911 -0.21257,0.4746 -0.55468,0.4746 -0.5168,0 -0.80664,-0.3362 -0.80664,-0.9258 l 0,-0.2774 z m 140.0371,27.8047 -57.07226,0 3.45898,1.8809 c 0,0 -3.47346,0.7062 -3.54296,3.1699 l 0,0.074 c 1.87455,-0.1232 3.6529,-1.1491 3.36132,-2.125 l 0.80469,1.0489 c 0,0 -0.36758,2.2451 -3.99414,2.9922 l 56.98437,0 0,-7.0391 0,0 z m -57.30664,0 c -0.007,0 -0.0122,0.01 -0.0195,0.01 l -3.98828,0 0,4.0117 0.77735,-1.0136 c -0.29181,0.9776 1.49157,2.006 3.37109,2.1269 l 0,-0.016 c -0.0149,-0.012 -4.45896,-3.7 -0.16016,-5.1094 l 0.0195,0 0,-0.01 z m -26.828121,0.7656 -0.736328,0 0,0.6563 0.736328,0 0,-0.6563 z m 10.722657,0.2891 -0.734375,0 0,0.7597 -0.410157,0 0,0.4883 0.410157,0 0,1.545 c 0,0.2517 -0.04794,0.3086 -0.242188,0.3086 -0.0525,0 -0.09447,-0.01 -0.167969,-0.016 l 0,0.5137 c 0.13125,0.042 0.263032,0.059 0.425782,0.059 0.483,0 0.71875,-0.2198 0.71875,-0.666 l 0,-1.7442 0.361328,0 0,-0.4883 -0.361328,0 0,-0.7597 z m 0.623046,0.6504 c -0.021,0 -0.04784,-3e-4 -0.08984,0.01 l 0,0.7461 c 0.09975,-0.011 0.153672,-0.022 0.232422,-0.022 0.4305,0 0.644531,0.216 0.644531,0.6465 l 0,1.5059 0.736328,0 0,-2.834 0,-0.01 -0.736328,0 0,0.5567 c -0.1575,-0.3833 -0.45111,-0.6035 -0.78711,-0.6035 z m -14.304687,0 c -0.021,0 -0.04589,-3e-4 -0.08789,0.01 l 0,0.7461 c 0.09975,-0.011 0.151719,-0.022 0.230469,-0.022 0.4305,0 0.644531,0.216 0.644531,0.6465 l 0,1.5059 0.736328,0 0,-2.834 0,-0.01 -0.736328,0 0,0.5567 c -0.1575,-0.3833 -0.451109,-0.6035 -0.787109,-0.6035 z m 38.705075,0 c 0.6663,0 1.25977,0.3852 1.25977,1.0879 0,1.1563 -1.66992,0.9537 -1.66992,1.7226 0,0.2853 0.21927,0.5196 0.65625,0.5196 0.45372,0 0.71013,-0.2547 0.77148,-0.5508 l 0.10742,0 c 0.039,0.2294 0.0891,0.4137 0.16211,0.6484 -0.16264,0.1128 -0.49693,0.2188 -0.90039,0.2188 -0.89036,0 -1.48633,-0.4701 -1.48633,-1.1524 0,-1.1562 1.70313,-0.9673 1.70313,-1.7207 0,-0.2444 -0.24034,-0.459 -0.58203,-0.459 -0.34134,0 -0.55972,0.1492 -0.67774,0.4395 l -0.084,0 c -0.0726,-0.224 -0.11235,-0.3478 -0.17969,-0.5059 0.21327,-0.1523 0.51679,-0.248 0.91992,-0.248 z m -18.24218,0 c -0.34125,0 -0.69382,0.1776 -0.88282,0.4454 -0.189,0.2624 -0.30468,0.6615 -0.30468,1.0605 0,0.861 0.505,1.502 1.1875,1.502 0.357,0 0.60861,-0.1479 0.78711,-0.4629 l 0,1.4804 0.73437,0 0,-3.9785 -0.73437,0 0,0.4199 c -0.1785,-0.315 -0.43011,-0.4668 -0.78711,-0.4668 z m -2.80469,0 c -0.7665,0 -1.160158,0.2936 -1.160158,0.8711 l 0,1.5743 c 0,0.147 -0.03672,0.2269 -0.167969,0.3476 l 0,0.09 0.796877,0 c 0.0682,-0.084 0.084,-0.1382 0.084,-0.2852 0.25725,0.2677 0.54633,0.4043 0.86133,0.4043 0.252,0 0.49936,-0.1 0.66211,-0.2676 0.13125,-0.1418 0.19922,-0.3405 0.19922,-0.582 0,-0.5092 -0.27419,-0.7986 -0.83594,-0.8926 l -0.29297,-0.053 c -0.36225,-0.057 -0.36314,-0.058 -0.46289,-0.1114 -0.0787,-0.042 -0.125,-0.1267 -0.125,-0.2207 0,-0.1895 0.14228,-0.2832 0.42578,-0.2832 0.36225,0 0.48278,0.095 0.51953,0.3887 l 0.70899,0 c -0.0473,-0.6563 -0.44639,-0.9805 -1.21289,-0.9805 z m -6.722658,0 c -0.57225,0 -1.027797,0.3098 -1.216797,0.8243 -0.06825,0.1994 -0.111328,0.4606 -0.111328,0.7441 0,0.037 5.59e-4,0.064 0.0059,0.127 l 1.900391,0 c -0.0105,0.2676 -0.03722,0.393 -0.105469,0.498 -0.105,0.1578 -0.272422,0.248 -0.482422,0.248 -0.26775,0 -0.47325,-0.1317 -0.5625,-0.3574 l -0.724609,0 c 0.16275,0.5565 0.67725,0.918 1.3125,0.918 0.80325,0 1.296875,-0.5567 1.296875,-1.4649 0,-0.9503 -0.49875,-1.5371 -1.3125,-1.5371 z m -3.410156,0 c -0.60375,0 -0.951172,0.3557 -0.951172,0.9805 l 0,1.9004 0.736328,0 0,-1.748 c 0,-0.3361 0.157656,-0.5098 0.472656,-0.5098 0.357,0 0.591797,0.2206 0.591797,0.5566 l 0,1.7012 0.736328,0 0,-2.834 -0.736328,0 0,0.4082 c -0.21,-0.315 -0.466359,-0.4551 -0.849609,-0.4551 z m -2.716797,0 c -0.7665,0 -1.160157,0.2936 -1.160157,0.8711 l 0,1.5743 c 1e-6,0.147 -0.03672,0.2269 -0.167968,0.3476 l 0,0.09 0.798828,0 c 0.06825,-0.084 0.08398,-0.1382 0.08398,-0.2852 0.25725,0.2677 0.546328,0.4043 0.861328,0.4043 0.252,0 0.497407,-0.1 0.660157,-0.2676 0.13125,-0.1418 0.201171,-0.3405 0.201171,-0.582 2e-6,-0.5092 -0.274187,-0.7986 -0.835937,-0.8926 l -0.292969,-0.053 c -0.36225,-0.057 -0.36314,-0.058 -0.46289,-0.1114 -0.07875,-0.042 -0.125,-0.1267 -0.125,-0.2207 0,-0.1895 0.140328,-0.2832 0.423828,-0.2832 0.36225,0 0.482781,0.095 0.519531,0.3887 l 0.708984,0 c -0.04725,-0.6563 -0.44639,-0.9805 -1.21289,-0.9805 z m -6.423828,0 c -0.57225,0 -1.027797,0.3098 -1.216797,0.8243 -0.06825,0.1994 -0.111328,0.4606 -0.111328,0.7441 0,0.037 5.59e-4,0.064 0.0059,0.127 l 1.900391,0 c -0.0105,0.2676 -0.03722,0.393 -0.105469,0.498 -0.105,0.1578 -0.272422,0.248 -0.482422,0.248 -0.26775,0 -0.47325,-0.1317 -0.5625,-0.3574 l -0.724609,0 c 0.16275,0.5565 0.67725,0.918 1.3125,0.918 0.80325,0 1.296875,-0.5567 1.296875,-1.4649 0,-0.9503 -0.49875,-1.5371 -1.3125,-1.5371 z m 76.939449,0.037 c 0.48167,1.1608 1.32137,2.9742 1.59571,3.5391 -0.10611,-0.01 -0.18956,-0.023 -0.2793,-0.023 -0.0894,0 -0.17393,0.01 -0.26367,0.023 -0.10611,-0.3511 -0.22974,-0.6966 -0.38086,-1.043 -0.19615,-0.016 -0.38587,-0.016 -0.58203,-0.016 -0.24083,0 -0.47597,-4e-4 -0.7168,0.016 -0.13996,0.3464 -0.26945,0.6969 -0.38672,1.043 -0.15671,-0.01 -0.31986,-0.023 -0.47656,-0.023 -0.15708,0 -0.31278,0.01 -0.49219,0.023 0.42581,-0.8296 1.08218,-2.3783 1.5586,-3.5391 0.0729,0.01 0.14031,0.025 0.21289,0.025 0.0726,0 0.13836,-0.01 0.21093,-0.025 z m -27.41797,0 c 0.48168,1.1608 1.32333,2.9742 1.59766,3.5391 -0.10645,-0.01 -0.19344,-0.023 -0.2832,-0.023 -0.0897,0 -0.17185,0.01 -0.26172,0.023 -0.10646,-0.3511 -0.22941,-0.6966 -0.38086,-1.043 -0.1958,-0.016 -0.3859,-0.016 -0.58203,-0.016 -0.24119,0 -0.47828,-4e-4 -0.71875,0.016 -0.13995,0.3464 -0.2687,0.6969 -0.38672,1.043 -0.15635,-0.01 -0.31788,-0.023 -0.47461,-0.023 -0.15672,0 -0.31475,0.01 -0.49414,0.023 0.4258,-0.8296 1.08219,-2.3783 1.55859,-3.5391 0.073,0.01 0.13955,0.025 0.21289,0.025 0.0726,0 0.14011,-0.01 0.21289,-0.025 z m -44.947261,0.01 -0.736328,0 0,2.834 0.736328,0 0,-2.834 z m 78.492191,0.016 c 0.15706,1.1713 0.34288,2.3409 0.57812,3.5118 -0.0893,-0.01 -0.17403,-0.024 -0.26367,-0.024 -0.0838,0 -0.17198,0.01 -0.26172,0.024 -0.0562,-0.7689 -0.10893,-1.5412 -0.22656,-2.3106 l -0.01,0 c -0.41988,0.7694 -0.82317,1.5417 -1.2207,2.3106 -0.0335,-0.016 -0.0739,-0.016 -0.10742,-0.016 -0.0339,0 -0.072,0.016 -0.10547,0.016 -0.40313,-0.7896 -0.81841,-1.5718 -1.23828,-2.3614 l -0.0117,0 c -0.0897,0.7896 -0.18552,1.654 -0.22461,2.3614 -0.15706,-0.01 -0.31142,-0.024 -0.46289,-0.024 -0.15148,0 -0.30395,0.01 -0.45508,0.024 0.13996,-0.718 0.33687,-2.3409 0.48242,-3.5118 0.0785,0.01 0.15618,0.027 0.23438,0.027 0.0785,0 0.16171,-0.011 0.24023,-0.027 0.40348,0.8096 0.86408,1.6746 1.30664,2.4336 0.40906,-0.7183 0.88426,-1.624 1.29297,-2.4336 0.0729,0.01 0.15204,0.027 0.22461,0.027 0.0785,0 0.15,-0.011 0.22852,-0.027 z m -8.68946,0 c -0.0335,0.4482 -0.0449,0.8404 -0.0449,1.4102 l 0,0.6933 c 0,0.5704 0.0114,0.9607 0.0449,1.4083 -0.1232,-0.01 -0.27399,-0.024 -0.45898,-0.024 -0.18498,0 -0.33543,0.01 -0.45899,0.024 0.0339,-0.4476 0.0449,-0.8379 0.0449,-1.4083 l 0,-0.6933 c 0,-0.5698 -0.0111,-0.962 -0.0449,-1.4102 0.12356,0.01 0.27401,0.027 0.45899,0.027 0.18499,0 0.33579,-0.011 0.45898,-0.027 z m -1.85351,0 c -0.0335,0.4482 -0.0469,0.8404 -0.0469,1.4102 l 0,0.6933 c 0,0.5699 0.0134,0.9624 0.0469,1.4102 -0.12321,-0.01 -0.27399,-0.023 -0.45899,-0.023 -0.18463,0 -0.33774,0.01 -0.46093,0.023 0.0338,-0.4478 0.0449,-0.8403 0.0449,-1.4102 l 0,-0.2089 -0.0508,0 -1.00196,1.6172 c -0.16788,-0.01 -0.34154,-0.024 -0.50976,-0.024 -0.16824,0 -0.33602,0.01 -0.50391,0.024 0.40906,-0.5752 0.83295,-1.1535 1.19141,-1.7286 -0.5546,-0.127 -0.86719,-0.4429 -0.86719,-0.9375 0,-0.3002 0.14152,-0.5262 0.36523,-0.6738 0.19616,-0.1269 0.40298,-0.1719 0.96875,-0.1719 0.38114,0 0.62054,0.027 0.82227,0.027 0.18499,0 0.33774,-0.011 0.46094,-0.027 z m -3.59961,0 c -0.0335,0.4482 -0.0449,0.8404 -0.0449,1.4102 l 0,0.6933 c 0,0.5699 0.0114,0.9607 0.0449,1.4083 -0.12321,-0.01 -0.274,-0.024 -0.45899,-0.024 -0.18463,0 -0.33578,0.01 -0.45898,0.024 0.0338,-0.4476 0.043,-0.8384 0.043,-1.4083 l 0,-0.6933 c 0,-0.5698 -0.009,-0.962 -0.043,-1.4102 0.12321,0.01 0.27435,0.027 0.45898,0.027 0.18464,0 0.33543,-0.011 0.45899,-0.027 z m -1.88672,0 0,0 c -0.0335,0.4481 -0.0449,0.8382 -0.0449,1.4082 l 0,0.6933 c 0,0.5701 0.0115,0.9624 0.0449,1.4102 -0.12321,-0.01 -0.27479,-0.023 -1.1875,-0.023 -0.51517,0 -0.77679,0.023 -0.97852,0.023 0.0107,-0.061 0.0215,-0.1124 0.0215,-0.2187 0,-0.1066 -0.0106,-0.1586 -0.0215,-0.2286 0.43139,0.048 0.86138,0.067 1.28125,0.067 0.0117,-0.2031 0.0156,-0.4238 0.0156,-0.6368 0,-0.2196 -0.004,-0.4385 -0.004,-0.6523 -0.4258,0 -0.84797,0.014 -1.27343,0.045 0.0167,-0.1082 0.0293,-0.151 0.0293,-0.209 0,-0.066 -0.007,-0.1136 -0.0293,-0.2304 0.42581,0.023 0.7862,0.025 1.27343,0.041 0,-0.3717 -10e-4,-0.7377 -0.0293,-1.1094 -0.16788,0 -0.84016,0.038 -1.26563,0.062 0.0109,-0.076 0.0215,-0.1241 0.0215,-0.2305 0,-0.091 -0.0106,-0.1519 -0.0215,-0.2129 0.15148,0.01 0.62126,0.027 1.16992,0.027 0.33019,0 0.66752,-0.027 0.99805,-0.027 z m -4.47461,0 c -0.0336,0.4482 -0.0449,0.8404 -0.0449,1.4102 l 0,0.6933 c 0,0.5704 0.0111,0.9607 0.0449,1.4083 -0.12319,-0.01 -0.27436,-0.024 -0.45898,-0.024 -0.29145,0 -0.67223,0.024 -1.23243,0.024 -1.05265,0 -1.93554,-0.7375 -1.93554,-1.8575 0,-1.2834 0.87914,-1.6543 2.15625,-1.6543 0.49211,0 0.76495,0.027 1.01172,0.027 0.18462,0 0.33538,-0.011 0.45898,-0.027 z m -4.4082,0 0,0 c -0.0336,0.4481 -0.0449,0.8382 -0.0449,1.4082 l 0.002,0 0,0.6933 c 0,0.5701 0.01,0.9624 0.043,1.4102 -0.12319,-0.01 -0.27285,-0.023 -1.18555,-0.023 -0.51587,0 -0.77907,0.023 -0.98047,0.023 0.0109,-0.061 0.0234,-0.1124 0.0234,-0.2187 0,-0.1066 -0.0132,-0.1586 -0.0234,-0.2286 0.4314,0.048 0.86138,0.067 1.28125,0.067 0.012,-0.2031 0.0176,-0.4238 0.0176,-0.6368 0,-0.2196 -0.006,-0.4385 -0.006,-0.6523 -0.42547,0 -0.84833,0.014 -1.27344,0.045 0.017,-0.1082 0.0293,-0.151 0.0293,-0.209 0,-0.066 -0.007,-0.1136 -0.0293,-0.2304 0.42511,0.023 0.78619,0.025 1.27344,0.041 0,-0.3717 -10e-4,-0.7377 -0.0293,-1.1094 -0.16786,0 -0.83982,0.038 -1.26562,0.062 0.0109,-0.076 0.0215,-0.1241 0.0215,-0.2305 0,-0.091 -0.0113,-0.1519 -0.0215,-0.2129 0.15112,0.01 0.6209,0.027 1.16992,0.027 0.33019,0 0.66751,-0.027 0.99805,-0.027 z m -4.57227,0 c -0.0336,0.4482 -0.0449,0.8404 -0.0449,1.4102 l 0,0.6933 c 0,0.5699 0.0115,0.9624 0.0449,1.4102 -0.12285,-0.01 -0.27437,-0.023 -0.45898,-0.023 -0.18464,0 -0.33539,0.01 -0.45899,0.023 0.0388,-0.5093 0.0449,-1.0194 0.0449,-1.5293 l -0.28515,0 c -0.83451,0 -1.43945,-0.3089 -1.43945,-1.0879 0,-0.3009 0.11277,-0.5109 0.34765,-0.6894 0.17381,-0.1321 0.44793,-0.2071 0.97461,-0.2071 0.26909,0 0.55883,0.027 0.81641,0.027 0.18461,0 0.33578,-0.011 0.45898,-0.027 z m -6.63086,0 c -0.0336,0.4482 -0.0469,0.8404 -0.0469,1.4102 l 0,0.6933 c 0,0.5699 0.0131,0.9624 0.0469,1.4102 -0.12322,-0.01 -0.2763,-0.023 -0.46094,-0.023 -0.18496,0 -0.33538,0.01 -0.45898,0.023 0.0336,-0.4478 0.0449,-0.8403 0.0449,-1.4102 l 0,-0.2089 -0.0508,0 -1.00195,1.6172 c -0.16823,-0.01 -0.34383,-0.024 -0.51172,-0.024 -0.16788,0 -0.33409,0.01 -0.50195,0.024 0.40906,-0.5752 0.83329,-1.1535 1.1914,-1.7286 -0.55426,-0.127 -0.86718,-0.4429 -0.86718,-0.9375 0,-0.3002 0.14115,-0.5262 0.36523,-0.6738 0.19544,-0.1269 0.40331,-0.1719 0.96875,-0.1719 0.38077,0 0.62052,0.027 0.82226,0.027 0.18464,0 0.33734,-0.011 0.46094,-0.027 z m -3.58984,0 c -0.0336,0.4482 -0.0449,0.8404 -0.0449,1.4102 l 0,0.6933 c 0,0.5704 0.0111,0.9607 0.0449,1.4083 -0.1225,-0.01 -0.27435,-0.024 -0.45899,-0.024 -0.18462,0 -0.33538,0.01 -0.45898,0.024 0.0336,-0.4476 0.0449,-0.8379 0.0449,-1.4083 l 0,-0.6933 c 0,-0.5698 -0.0111,-0.962 -0.0449,-1.4102 0.12321,0.01 0.27436,0.027 0.45898,0.027 0.18464,0 0.33619,-0.011 0.45899,-0.027 z m 9.10156,0.2813 c -0.31934,0 -0.59375,0.1686 -0.59375,0.6875 0,0.6572 0.46465,0.75 0.83984,0.75 0,-0.4737 -0.006,-0.9528 -0.0117,-1.4317 l -0.23438,0 0,-0.01 z m 8.63867,0 c -0.7731,0 -1.2832,0.5203 -1.2832,1.3555 0,1.059 0.53065,1.5781 1.37109,1.5781 0.22967,0 0.38209,4e-4 0.49414,-0.016 0.006,-0.097 0.006,-0.7186 0.006,-0.9942 l 0,-0.9062 c 0,-0.2747 -1.6e-4,-0.8962 -0.006,-0.9922 -0.17381,-0.01 -0.31362,-0.024 -0.58203,-0.024 l 0,0 z m 10.5293,0.01 c -0.61044,0 -0.86684,0.069 -0.86719,0.67 0,0.479 0.26855,0.7265 0.76172,0.7265 0.0395,0 0.0783,-0.017 0.12305,-0.017 0,-0.4622 -0.006,-0.9172 -0.0176,-1.379 z m -25.57031,0 c -0.6108,0 -0.86914,0.069 -0.86914,0.67 0,0.479 0.26853,0.7265 0.76172,0.7265 0.0393,0 0.0782,-0.017 0.12304,-0.017 0,-0.4622 -0.005,-0.9172 -0.0156,-1.379 z m -33.498049,0.2071 c 0.3255,0 0.50939,0.216 0.55664,0.6465 l -1.128906,0 c 0.01575,-0.1942 0.04698,-0.3052 0.115234,-0.4102 0.105,-0.1472 0.273282,-0.2363 0.457032,-0.2363 z m -12.550782,0 c 0.3255,0 0.509391,0.216 0.556641,0.6465 l -1.128906,0 c 0.01575,-0.1942 0.04698,-0.3052 0.115234,-0.4102 0.105,-0.1472 0.273281,-0.2363 0.457031,-0.2363 z m 22.234371,0.053 c 0.3675,0 0.61915,0.3623 0.61915,0.8926 0,0.5302 -0.25165,0.8867 -0.61915,0.8867 -0.36225,0 -0.61914,-0.3624 -0.61914,-0.8769 0,-0.5408 0.24639,-0.9024 0.61914,-0.9024 z m 54.69336,0.4024 c -0.17904,0.3974 -0.33735,0.8002 -0.5,1.2128 l 1.02735,0 c -0.16265,-0.4126 -0.33676,-0.8154 -0.52735,-1.2128 z m -27.41797,0 c -0.17938,0.3974 -0.33736,0.8002 -0.5,1.2128 l 1.02735,0 c -0.1623,-0.4126 -0.33677,-0.8154 -0.52735,-1.2128 z m -30.68945,0.5273 c 0.084,0.042 0.11435,0.053 0.3086,0.09 l 0.25195,0.047 c 0.3045,0.063 0.42187,0.1682 0.42187,0.3887 0,0.21 -0.15364,0.3398 -0.40039,0.3398 -0.37275,0 -0.58203,-0.2407 -0.58203,-0.666 l 0,-0.1992 z m -12.847654,0 c 0.084,0.042 0.114343,0.053 0.308593,0.09 l 0.251953,0.047 c 0.304501,0.063 0.419922,0.1682 0.419922,0.3887 0,0.21 -0.151687,0.3398 -0.398437,0.3398 -0.37275,0 -0.582031,-0.2407 -0.582031,-0.666 l 0,-0.1992 z m 21.410154,0.875 0,2.9063 3.9668,0 c -3.41342,-0.7033 -3.9187,-2.669 -3.9668,-2.9063 z"
       id="rect8665"
       inkscape:export-xdpi="200"
       inkscape:export-ydpi="200"
       inkscape:connector-curvature="0" />
  </g>
  <g
     inkscape:groupmode="layer"
     id="layer2"
     inkscape:label="Calque 2"
     style="display:inline" />
</svg>
