<?xml version="1.0" encoding="UTF-8" standalone="no"?>
<!-- Created with Inkscape (http://www.inkscape.org/) -->

<svg
   xmlns:dc="http://purl.org/dc/elements/1.1/"
   xmlns:cc="http://creativecommons.org/ns#"
   xmlns:rdf="http://www.w3.org/1999/02/22-rdf-syntax-ns#"
   xmlns:svg="http://www.w3.org/2000/svg"
   xmlns="http://www.w3.org/2000/svg"
   xmlns:sodipodi="http://sodipodi.sourceforge.net/DTD/sodipodi-0.dtd"
   xmlns:inkscape="http://www.inkscape.org/namespaces/inkscape"
   width="50mm"
   height="50mm"
   id="svg18008"
   version="1.1"
   inkscape:version="0.91pre0 r13343"
   sodipodi:docname="silkscreen3bold_new_standalone.svg">
  <defs
     id="defs18010">
    <clipPath
       clipPathUnits="userSpaceOnUse"
       id="clipPath4755">
      <path
         d="m 0,898.583 1247.243,0 L 1247.243,0 0,0 0,898.583 Z"
         id="path4757"
         inkscape:connector-curvature="0" />
    </clipPath>
    <clipPath
       clipPathUnits="userSpaceOnUse"
       id="clipPath6120">
      <g
         style="color:#000000;fill:url(#linearGradient6140);fill-opacity:1;fill-rule:nonzero;stroke:none;stroke-width:1;marker:none;visibility:visible;display:inline;overflow:visible;enable-background:accumulate"
         id="g6122">
        <path
           inkscape:connector-curvature="0"
           id="path6124"
           style="color:#000000;fill:url(#linearGradient6132);fill-opacity:1;fill-rule:nonzero;stroke:none;stroke-width:1;marker:none;visibility:visible;display:inline;overflow:visible;enable-background:accumulate"
           d="m 343.281,185.348 -91.508,-11.028 -0.281,28.098 91.524,11.027 0.265,-28.097 z" />
        <path
           inkscape:connector-curvature="0"
           id="path6126"
           style="color:#000000;fill:url(#linearGradient6134);fill-opacity:1;fill-rule:nonzero;stroke:none;stroke-width:1;marker:none;visibility:visible;display:inline;overflow:visible;enable-background:accumulate"
           d="m 343.84,140.363 -91.504,-11.023 -0.285,28.09 91.523,11.023 0.266,-28.09 z" />
        <path
           inkscape:connector-curvature="0"
           id="path6128"
           style="color:#000000;fill:url(#linearGradient6136);fill-opacity:1;fill-rule:nonzero;stroke:none;stroke-width:1;marker:none;visibility:visible;display:inline;overflow:visible;enable-background:accumulate"
           d="m 299.336,338.77 c -2.035,14.011 2.348,26.503 2.348,26.503 26.558,15.583 26.414,46.852 26.648,53.27 2.57,3.953 13.246,6.328 13.246,6.328 -31.238,7.117 -44.683,-44.281 -45.398,-71.308 -1.071,-40.18 28.738,-58.551 62.902,-37.653 41.734,25.528 52.785,72.176 44.508,104.676 l 21.785,20.738 c 18.414,-50.515 -0.988,-102.828 -34.148,-127.336 -66.465,-49.117 -105.985,-5.933 -109.782,14.481 -9.617,-3.578 -18.578,-4.738 -26.14,-4.098 -14.649,1.246 -26.399,8.817 -31.469,21.098 -18.445,44.676 25.699,79.375 27.445,80.961 l 7.278,-9.317 -7.926,8.77 7.957,-8.746 c -0.305,-0.278 -36.774,-34.492 -22.973,-62.828 8.449,-17.332 34.098,-4.176 42.524,1.781 -1.86,74.945 52.55,100.93 68.793,73.539 4.339,-7.316 6.914,-55.57 -47.157,-90.531 l -0.441,-0.328 z" />
        <path
           inkscape:connector-curvature="0"
           id="path6130"
           style="color:#000000;fill:url(#linearGradient6138);fill-opacity:1;fill-rule:nonzero;stroke:none;stroke-width:1;marker:none;visibility:visible;display:inline;overflow:visible;enable-background:accumulate"
           d="m 305.863,258.863 c -58.449,1.383 -109.23,46.032 -109.23,110.637 0,63.582 50.555,107.457 109.023,107.457 29.727,0 58.367,-11.66 77.602,-31.394 l 19.797,19.402 c -25,25.207 -59.657,40.828 -97.965,40.828 -76.192,0 -137.965,-61.773 -137.965,-137.977 0,-76.203 62.695,-139.57 138.883,-139.57 36.789,0 71.129,14.617 95.863,38.082 l -20.617,19.656 c -18.785,-17.023 -46.473,-27.808 -75.391,-27.121" />
      </g>
    </clipPath>
    <clipPath
       clipPathUnits="userSpaceOnUse"
       id="clipPath5928">
      <g
         id="g5930"
         style="color:#000000;fill:#dbdbdb;fill-opacity:1;fill-rule:nonzero;stroke:none;stroke-width:1;marker:none;visibility:visible;display:inline;overflow:visible;enable-background:accumulate">
        <path
           d="m 343.281,185.348 -91.508,-11.028 -0.281,28.098 91.524,11.027 0.265,-28.097 z"
           style="color:#000000;fill:#dbdbdb;fill-opacity:1;fill-rule:nonzero;stroke:none;stroke-width:1;marker:none;visibility:visible;display:inline;overflow:visible;enable-background:accumulate"
           id="path5932"
           inkscape:connector-curvature="0" />
        <path
           d="m 343.84,140.363 -91.504,-11.023 -0.285,28.09 91.523,11.023 0.266,-28.09 z"
           style="color:#000000;fill:#dbdbdb;fill-opacity:1;fill-rule:nonzero;stroke:none;stroke-width:1;marker:none;visibility:visible;display:inline;overflow:visible;enable-background:accumulate"
           id="path5934"
           inkscape:connector-curvature="0" />
        <path
           d="m 299.336,338.77 c -2.035,14.011 2.348,26.503 2.348,26.503 26.558,15.583 26.414,46.852 26.648,53.27 2.57,3.953 13.246,6.328 13.246,6.328 -31.238,7.117 -44.683,-44.281 -45.398,-71.308 -1.071,-40.18 28.738,-58.551 62.902,-37.653 41.734,25.528 52.785,72.176 44.508,104.676 l 21.785,20.738 c 18.414,-50.515 -0.988,-102.828 -34.148,-127.336 -66.465,-49.117 -105.985,-5.933 -109.782,14.481 -9.617,-3.578 -18.578,-4.738 -26.14,-4.098 -14.649,1.246 -26.399,8.817 -31.469,21.098 -18.445,44.676 25.699,79.375 27.445,80.961 l 7.278,-9.317 -7.926,8.77 7.957,-8.746 c -0.305,-0.278 -36.774,-34.492 -22.973,-62.828 8.449,-17.332 34.098,-4.176 42.524,1.781 -1.86,74.945 52.55,100.93 68.793,73.539 4.339,-7.316 6.914,-55.57 -47.157,-90.531 l -0.441,-0.328 z"
           style="color:#000000;fill:#dbdbdb;fill-opacity:1;fill-rule:nonzero;stroke:none;stroke-width:1;marker:none;visibility:visible;display:inline;overflow:visible;enable-background:accumulate"
           id="path5936"
           inkscape:connector-curvature="0" />
        <path
           d="m 305.863,258.863 c -58.449,1.383 -109.23,46.032 -109.23,110.637 0,63.582 50.555,107.457 109.023,107.457 29.727,0 58.367,-11.66 77.602,-31.394 l 19.797,19.402 c -25,25.207 -59.657,40.828 -97.965,40.828 -76.192,0 -137.965,-61.773 -137.965,-137.977 0,-76.203 62.695,-139.57 138.883,-139.57 36.789,0 71.129,14.617 95.863,38.082 l -20.617,19.656 c -18.785,-17.023 -46.473,-27.808 -75.391,-27.121"
           style="color:#000000;fill:#dbdbdb;fill-opacity:1;fill-rule:nonzero;stroke:none;stroke-width:1;marker:none;visibility:visible;display:inline;overflow:visible;enable-background:accumulate"
           id="path5938"
           inkscape:connector-curvature="0" />
      </g>
    </clipPath>
    <mask
       maskUnits="userSpaceOnUse"
       id="mask5914">
      <path
         style="fill:#ffffff;fill-opacity:1;stroke:none"
         d="m 312.00199,518.42325 c -37.64341,-0.48617 -76.24725,-17.82274 -105.66906,-37.62579 -47.0746,-31.68487 -62.45875,-100.46361 -43.44783,-167.45457 19.01093,-66.99082 33.93108,-85.11356 100.92204,-85.11356 l -0.43003,4.54349 c -57.9382,14.48455 -75.13283,84.16301 -79.6592,139.38519 -4.5265,55.22205 46.16372,109.55603 113.15468,116.79831 66.99082,7.24227 101.3916,-36.19997 101.3916,-36.19997 21.7267,-3.62108 30.76259,5.39783 -21.74381,45.23016 -19.68987,14.93714 -41.93227,20.7285 -64.51839,20.43674 z m 14.29786,-69.74627 -35.32863,-9.06986 -53.38902,-85.07389 15.36716,-15.84244 31.68488,16.27805 5.4261,30.77399 11.80249,24.0013 25.3479,22.61514 22.61514,-2.69321 4.07949,9.94106 z m -69.70672,-14.49595 -34.85337,-24.00117 -6.81225,-53.38902 15.40684,-26.2589 -6.33698,22.61514 1.34648,23.09029 11.76308,28.08079 18.57532,24.87262 z m 143.49281,-8.15873 c 0,0 -85.54916,-114.49571 -85.54916,-116.75877 0,-2.26344 17.18917,-7.72325 17.18917,-7.72325 l 27.60539,8.15885 c 0,0 22.19639,14.47885 37.58612,40.27946 15.38985,25.80049 15.36716,60.20127 15.36716,60.20127 z m -70.182,-4.51522 -9.03019,-6.77258 -18.57519,-38.49713 -4.99037,-22.61501 14.49583,5.42597 15.40671,19.92193 7.68371,24.43689 z m 30.3384,-200.9612 -138.06697,-12.67396 25.3479,-37.58624 z m 5.8617,-43.01235 -149.35465,-14.93144 26.25891,-40.7546 z"
         id="path5916"
         inkscape:connector-curvature="0"
         sodipodi:nodetypes="sssccsscsscccccccccccccccccccccsccscccccccccccccccccc" />
    </mask>
  </defs>
  <sodipodi:namedview
     id="base"
     pagecolor="#ffffff"
     bordercolor="#666666"
     borderopacity="1.0"
     inkscape:pageopacity="0.0"
     inkscape:pageshadow="2"
     inkscape:zoom="2.8"
     inkscape:cx="90.133914"
     inkscape:cy="94.689412"
     inkscape:document-units="px"
     inkscape:current-layer="layer1"
     showgrid="false"
     inkscape:window-width="1543"
     inkscape:window-height="876"
     inkscape:window-x="57"
     inkscape:window-y="24"
     inkscape:window-maximized="1"
     inkscape:snap-page="true">
    <sodipodi:guide
       position="6.4794726,170.68591"
       orientation="164.20642,0"
       id="guide4341" />
    <sodipodi:guide
       position="6.4794726,6.4794896"
       orientation="0,164.20641"
       id="guide4343" />
    <sodipodi:guide
       position="170.68588,6.4794896"
       orientation="-164.20642,0"
       id="guide4345" />
    <sodipodi:guide
       position="170.68588,170.68591"
       orientation="0,-164.20641"
       id="guide4347" />
  </sodipodi:namedview>
  <metadata
     id="metadata18013">
    <rdf:RDF>
      <cc:Work
         rdf:about="">
        <dc:format>image/svg+xml</dc:format>
        <dc:type
           rdf:resource="http://purl.org/dc/dcmitype/StillImage" />
        <dc:title></dc:title>
      </cc:Work>
    </rdf:RDF>
  </metadata>
  <g
     inkscape:label="Calque 1"
     inkscape:groupmode="layer"
     id="layer1"
     transform="translate(0,-875.19683)">
    <path
       style="color:#000000;display:inline;overflow:visible;visibility:visible;fill:#000000;fill-opacity:1;fill-rule:nonzero;stroke:none;stroke-width:7.19999981;marker:none;enable-background:accumulate"
       d="m 21.141919,883.33746 0,3.98828 c -1.40942,-4.2988 -5.09739,0.1453 -5.10937,0.16015 l -0.01563,0 c 0.1209,-1.87952 1.14936,-3.66289 2.12696,-3.37109 l -1.01368,-0.77734 4.01172,0 z m 0,3.98828 c 0.0024,0.007 0.0054,0.0121 0.0078,0.0195 l -0.0078,0 0,-0.0195 z m -4.12109,-3.98828 c -0.2373,0.0481 -2.20305,0.55337 -2.90625,3.96679 l 0,-3.96679 2.90625,0 z m -0.91992,4.1582 c 2.4637,0.0695 3.16992,3.54297 3.16992,3.54297 l 1.87891,-3.45899 0,57.07227 -7.04102,0 0,-56.98438 c 0.7471,3.62656 2.99414,3.99414 2.99414,3.99414 l 1.04883,-0.80468 c -0.9759,0.29158 -2.0018,-1.48677 -2.125,-3.36133 l 0.07422,0 z m 0.8457,7.66797 c -0.6823,0 -1.15234,0.59597 -1.15234,1.48633 0,0.40347 0.10595,0.73774 0.21875,0.90039 0.2347,-0.073 0.41903,-0.1231 0.64843,-0.16211 l 0,-0.10743 c -0.2961,-0.0614 -0.55078,-0.31776 -0.55078,-0.77148 0,-0.43698 0.23423,-0.65625 0.51953,-0.65625 0.7689,0 0.56441,1.66992 1.72071,1.66992 0.7027,0 1.08984,-0.59346 1.08984,-1.25976 0,-0.40314 -0.09575,-0.70666 -0.24805,-0.91993 -0.1581,0.0673 -0.28186,0.10705 -0.50586,0.17969 l 0,0.084 c 0.2903,0.11802 0.43946,0.3364 0.43946,0.67773 0,0.3417 -0.21459,0.58203 -0.45899,0.58203 -0.7534,0 -0.5645,-1.70312 -1.7207,-1.70312 z m 2.42969,3.22265 c -0.4482,0.0338 -0.84036,0.0449 -1.41016,0.0449 l -0.69336,0 c -0.5703,0 -0.96255,-0.0113 -1.41015,-0.0449 0.016,0.1236 0.02539,0.27436 0.02539,0.45899 0,0.18464 -0.01739,0.33648 -0.02539,0.45898 0.4476,-0.0338 0.83985,-0.0449 1.41015,-0.0449 l 0.69336,0 c 0.5698,0 0.96196,0.0113 1.41016,0.0449 -0.016,-0.1228 -0.02735,-0.27434 -0.02735,-0.45898 0,-0.18463 0.01735,-0.33578 0.02735,-0.45899 z m -3.51367,1.56641 c 0.016,0.16786 0.02539,0.33408 0.02539,0.50195 0,0.16789 -0.01739,0.34349 -0.02539,0.51172 l 1.61914,1.00195 0,0.0508 -0.20899,0 c -0.5699,0 -0.96431,-0.0113 -1.41211,-0.0449 0.016,0.12359 0.02539,0.27402 0.02539,0.45899 0,0.18464 -0.01739,0.33575 -0.02539,0.45898 0.4478,-0.0337 0.84221,-0.0449 1.41211,-0.0449 l 0.69336,0 c 0.5698,0 0.96196,0.0113 1.41016,0.0449 -0.01588,-0.12331 -0.02735,-0.27512 -0.02735,-0.45898 0,-0.20174 0.02735,-0.44151 0.02735,-0.82227 0,-0.56544 -0.04498,-0.77331 -0.17188,-0.96875 -0.1476,-0.22408 -0.37363,-0.36523 -0.67383,-0.36523 -0.4946,0 -0.8105,0.31294 -0.9375,0.86719 -0.5751,-0.3581 -1.15526,-0.78235 -1.73046,-1.19141 z m 2.55273,1.18164 c 0.6013,0 0.66797,0.25835 0.66797,0.86914 -0.4611,0.0101 -0.91737,0.0156 -1.37891,0.0156 0,-0.0448 -0.01562,-0.0837 -0.01562,-0.12305 0,-0.49318 0.24756,-0.76172 0.72656,-0.76172 z m 99.271481,0.12695 c 0.32503,0 0.60103,0.1147 0.83008,0.34375 0.22905,0.22919 0.34375,0.50519 0.34375,0.83008 l 0,1.15039 c 0,0.32503 -0.11455,0.60298 -0.34375,0.83203 -0.22905,0.2292 -0.50519,0.34375 -0.83008,0.34375 -0.32488,0 -0.60275,-0.11455 -0.83398,-0.34375 -0.23123,-0.22905 -0.34766,-0.50714 -0.34766,-0.83203 l 0,-1.15039 c 0,-0.32503 0.11643,-0.60089 0.34766,-0.83008 0.23123,-0.22905 0.50895,-0.34375 0.83398,-0.34375 z m -3.27929,0 c 0.32488,0 0.60275,0.1147 0.83398,0.34375 0.23123,0.22919 0.34766,0.50519 0.34766,0.83008 l 0,3.54688 -0.5,-0.21875 0,-1.21485 c -0.19793,0.14177 -0.4254,0.21289 -0.68164,0.21289 -0.32504,0 -0.60284,-0.11455 -0.83203,-0.34375 -0.22905,-0.22905 -0.34375,-0.50714 -0.34375,-0.83203 l 0,-1.15039 c 0,-0.32503 0.1147,-0.60089 0.34375,-0.83008 0.22919,-0.22905 0.50714,-0.34375 0.83203,-0.34375 z m -3.26758,0 c 0.32503,0 0.60298,0.1147 0.83203,0.34375 0.22905,0.22919 0.34375,0.50519 0.34375,0.83008 l 0,1.15039 c 0,0.32503 -0.11456,0.60298 -0.34375,0.83203 -0.22905,0.2292 -0.50715,0.34375 -0.83203,0.34375 -0.32489,0 -0.59417,-0.11291 -0.80664,-0.33789 -0.24999,-0.26657 -0.375,-0.54616 -0.375,-0.83789 l 0,-0.27539 0.5,0.22266 0,0.043 c 0.004,0.19371 0.072,0.35546 0.20117,0.48242 0.13336,0.13131 0.28794,0.19726 0.46289,0.19726 0.19996,0 0.36506,-0.069 0.49609,-0.20312 0.13132,-0.13438 0.19727,-0.30027 0.19727,-0.49805 l -1.85742,-0.82422 0,-0.29492 c 0,-0.33739 0.11642,-0.61339 0.34765,-0.83008 0.2436,-0.22905 0.52161,-0.34375 0.83399,-0.34375 z m -3.27344,0 c 0.32503,0 0.60298,0.1147 0.83203,0.34375 0.22905,0.22919 0.34375,0.50519 0.34375,0.83008 l 0,2.32422 -0.5,-0.21875 0,-2.0957 0,-0.01 c 0,-0.18324 -0.0659,-0.33947 -0.19922,-0.46875 -0.13539,-0.13316 -0.29691,-0.19922 -0.48437,-0.19922 -0.1812,0 -0.3393,0.0661 -0.47266,0.19727 -0.12914,0.1271 -0.19502,0.28676 -0.19922,0.48047 l 0,2.3164 -0.5,-0.21875 0,-2.10742 c 0,-0.32503 0.11448,-0.60089 0.34571,-0.83008 0.23123,-0.22905 0.50895,-0.34375 0.83398,-0.34375 z m 9.83985,0.50586 c -0.20011,0 -0.36665,0.0661 -0.5,0.19727 -0.12915,0.1271 -0.19698,0.28676 -0.20118,0.48047 l 0,1.13086 c 0.004,0.19371 0.072,0.35547 0.20118,0.48242 0.13335,0.13131 0.28598,0.19726 0.46093,0.19726 0.18121,0 0.34273,-0.0661 0.48438,-0.19726 0.13961,-0.12914 0.21094,-0.29074 0.21094,-0.48242 l 0,-1.13086 0,-0.0176 c -0.002,-0.17917 -0.0681,-0.3336 -0.19727,-0.46289 -0.13118,-0.13131 -0.28403,-0.19727 -0.45898,-0.19727 z m -3.27344,0 c -0.20011,0 -0.36664,0.0661 -0.5,0.19727 -0.12915,0.1271 -0.19697,0.28676 -0.20117,0.48047 l 0,1.13086 c 0.004,0.19371 0.072,0.35547 0.20117,0.48242 0.13336,0.13131 0.28794,0.19726 0.46289,0.19726 0.1812,0 0.34273,-0.0661 0.48437,-0.19726 0.13961,-0.12914 0.20899,-0.29074 0.20899,-0.48242 l 0,-1.13086 0,-0.0176 c -0.002,-0.17917 -0.0681,-0.3336 -0.19727,-0.46289 -0.13117,-0.13131 -0.28403,-0.19727 -0.45898,-0.19727 z m -3.27344,0 c -0.19996,0 -0.36679,0.0658 -0.5,0.19727 -0.12085,0.11896 -0.1868,0.26616 -0.19727,0.4414 l 1.35352,0.60157 0,-0.5625 0,-0.01 c 0,-0.18324 -0.0661,-0.33938 -0.19727,-0.4707 -0.13117,-0.13131 -0.28403,-0.19727 -0.45898,-0.19727 z m -95.296871,1.71289 c 0.016,0.17939 0.02343,0.33742 0.02343,0.49414 0,0.15672 -0.01543,0.31825 -0.02343,0.47461 0.3461,0.11801 0.69656,0.24676 1.04296,0.38672 0.016,0.24047 0.01563,0.47756 0.01563,0.71875 0,0.19612 5.7e-4,0.38623 -0.01563,0.58203 -0.3464,0.15146 -0.69186,0.2744 -1.04296,0.38086 0.016,0.0899 0.02343,0.172 0.02343,0.26172 0,0.0898 -0.01543,0.17675 -0.02343,0.2832 0.5649,-0.27432 2.37631,-1.11598 3.53711,-1.59765 -0.016,-0.0728 -0.02344,-0.14031 -0.02344,-0.21289 0,-0.0733 0.01444,-0.13994 0.02344,-0.21289 -1.1608,-0.47641 -2.70751,-1.1328 -3.53711,-1.5586 z m 1.34765,1.48438 c 0.4127,0.16263 0.81549,0.32061 1.21289,0.5 -0.3974,0.19057 -0.80019,0.36505 -1.21289,0.52734 l 0,-1.02734 z m 96.605471,1.61328 c 0.0502,0 0.0983,0.0404 0.10742,0.0898 l 0.0352,0.19336 c 0.009,0.0493 0.026,0.13029 0.0352,0.17969 l 0.31836,1.7207 c 0.009,0.0493 0.0558,0.1014 0.10352,0.11719 l 1.4043,0.57422 c 0.0451,0.0221 0.11488,0.0187 0.15625,-0.01 l 1.43554,-0.98632 c 0.0414,-0.0285 0.10903,-0.0751 0.15039,-0.10352 l 0.16211,-0.11133 c 0.0414,-0.0284 0.1052,-0.0219 0.14063,0.0137 l 0.13867,0.13868 0.12891,0.1289 0.40429,0.4043 0.12891,0.12891 0.4043,0.40234 0.1289,0.13086 0.13867,0.13867 c 0.0355,0.0355 0.0421,0.0973 0.0137,0.13867 l -0.11133,0.16406 c -0.0283,0.0415 -0.0751,0.10895 -0.10352,0.1504 l -0.96484,1.40429 c -0.0284,0.0415 -0.0328,0.1116 -0.01,0.15625 l 0.61914,1.44727 c 0.0165,0.0475 0.0717,0.0943 0.1211,0.10351 l 1.65039,0.30664 c 0.0494,0.009 0.13029,0.0242 0.17969,0.0332 l 0.19336,0.0371 c 0.0494,0.009 0.0898,0.0571 0.0898,0.10742 l 0,0.19726 0,0.18164 0,0.57227 0,0.18164 0,0.57031 0,0.1836 0,0.19531 c 0,0.0502 -0.0404,0.10025 -0.0898,0.10937 l -0.19336,0.0352 c -0.0494,0.009 -0.13029,0.024 -0.17969,0.0332 l -1.60156,0.29883 c -0.0494,0.009 -0.10213,0.0556 -0.11719,0.10352 l -0.61524,1.53906 c -0.0221,0.045 -0.0168,0.11684 0.0117,0.1582 l 0.90625,1.32032 c 0.0285,0.0414 0.0752,0.10912 0.10352,0.15039 l 0.11133,0.16211 c 0.0283,0.0414 0.0218,0.1051 -0.0137,0.14062 l -0.13867,0.13867 -0.1289,0.12891 -0.4043,0.4043 -0.12891,0.1289 -0.40429,0.40235 -0.12891,0.13086 -0.13867,0.13867 c -0.0354,0.0354 -0.0993,0.0401 -0.14063,0.0117 l -0.16211,-0.11133 c -0.0414,-0.0284 -0.10893,-0.0733 -0.15039,-0.10156 l -1.29101,-0.88672 c -0.0414,-0.0284 -0.11111,-0.0316 -0.1543,-0.006 l -0.26953,0.15039 c -0.0442,0.0237 -0.11541,0.0631 -0.16016,0.0859 l -0.27929,0.14062 c -0.0448,0.0228 -0.096,0.006 -0.11524,-0.041 l -0.11914,-0.28906 c -0.0193,-0.0464 -0.0511,-0.12158 -0.0703,-0.16797 l -1.12109,-2.71093 c -0.0193,-0.0462 -0.0511,-0.12168 -0.0703,-0.16797 l -0.0781,-0.19141 c -0.0193,-0.0464 1.4e-4,-0.1066 0.043,-0.13281 l 0.17578,-0.10742 c 0.0327,-0.0199 0.0785,-0.0545 0.11328,-0.0859 0.63907,-0.40934 1.0625,-1.12433 1.0625,-1.93945 0,-1.27212 -1.0307,-2.30469 -2.30274,-2.30469 -1.27212,0 -2.30468,1.03257 -2.30468,2.30469 0,0.81521 0.42342,1.53011 1.0625,1.93945 0.0347,0.0314 0.0805,0.0659 0.11328,0.0859 l 0.17578,0.10742 c 0.0427,0.0262 0.0621,0.0865 0.043,0.13281 l -0.0781,0.19141 c -0.0192,0.0464 -0.0511,0.12177 -0.0703,0.16797 l -1.12109,2.71093 c -0.0193,0.0464 -0.0512,0.12159 -0.0703,0.16797 l -0.11914,0.28906 c -0.0193,0.0464 -0.0704,0.0639 -0.11523,0.041 l -0.2793,-0.14062 c -0.0449,-0.0228 -0.11596,-0.0622 -0.16015,-0.0859 l -0.26953,-0.15039 c -0.0433,-0.0254 -0.11294,-0.0222 -0.1543,0.006 l -1.29102,0.88672 c -0.0414,0.0283 -0.10921,0.0732 -0.15039,0.10156 l -0.16211,0.11133 c -0.0414,0.0284 -0.10519,0.0238 -0.14062,-0.0117 l -0.13867,-0.13867 -0.12891,-0.13086 -0.4043,-0.40235 -0.1289,-0.1289 -0.4043,-0.4043 -0.12891,-0.12891 -0.13867,-0.13867 c -0.0354,-0.0354 -0.0421,-0.0992 -0.0137,-0.14062 l 0.11133,-0.16211 c 0.0284,-0.0413 0.0751,-0.10894 0.10351,-0.15039 l 0.90625,-1.32032 c 0.0284,-0.0414 0.0338,-0.1131 0.0117,-0.1582 l -0.61523,-1.53906 c -0.0152,-0.0479 -0.0679,-0.0944 -0.11719,-0.10352 l -1.60156,-0.29883 c -0.0494,-0.009 -0.13029,-0.024 -0.17969,-0.0332 l -0.19336,-0.0352 c -0.0494,-0.009 -0.0898,-0.0591 -0.0898,-0.10937 l 0,-0.19531 0,-0.1836 0,-0.57031 0,-0.18164 0,-0.57227 0,-0.18164 0,-0.19726 c -9e-5,-0.0503 0.0404,-0.0981 0.0898,-0.10742 l 0.19336,-0.0371 c 0.0494,-0.009 0.13029,-0.024 0.17969,-0.0332 l 1.65039,-0.30664 c 0.0494,-0.009 0.10466,-0.056 0.12109,-0.10351 l 0.61914,-1.44727 c 0.0231,-0.0447 0.0187,-0.11471 -0.01,-0.15625 l -0.96485,-1.40429 c -0.0284,-0.0414 -0.0752,-0.10894 -0.10351,-0.1504 l -0.11133,-0.16406 c -0.0282,-0.0414 -0.0219,-0.10315 0.0137,-0.13867 l 0.13867,-0.13867 0.12891,-0.13086 0.4043,-0.40234 0.1289,-0.12891 0.4043,-0.4043 0.12891,-0.1289 0.13867,-0.13868 c 0.0354,-0.0355 0.0993,-0.0421 0.14062,-0.0137 l 0.16211,0.11133 c 0.0414,0.0285 0.10903,0.0751 0.15039,0.10352 l 1.43555,0.98632 c 0.0414,0.0285 0.11114,0.0319 0.15625,0.01 l 1.4043,-0.57422 c 0.0477,-0.0158 0.0942,-0.0679 0.10351,-0.11719 l 0.31836,-1.7207 c 0.009,-0.0494 0.0261,-0.13038 0.0352,-0.17969 l 0.0352,-0.19336 c 0.009,-0.0493 0.0573,-0.0898 0.10743,-0.0898 l 0.19726,0 0.1836,0 0.57031,0 0.18164,0 0.57031,0 0.18359,0 0.19727,0 z m -95.335941,0.34961 c -0.779,0 -1.08984,0.60494 -1.08984,1.43945 l 0,0.28516 c -0.5099,0 -1.02,-0.006 -1.5293,-0.0449 0.016,0.1236 0.02539,0.27434 0.02539,0.45898 0,0.18462 -0.01739,0.33614 -0.02539,0.45899 0.4478,-0.0334 0.84221,-0.0449 1.41211,-0.0449 l 0.69336,0 c 0.5698,0 0.96196,0.0113 1.41016,0.0449 -0.016,-0.1232 -0.02735,-0.27438 -0.02735,-0.45899 0,-0.25758 0.02735,-0.54732 0.02735,-0.81641 0,-0.52669 -0.07493,-0.8008 -0.20703,-0.9746 -0.1785,-0.23489 -0.38856,-0.34766 -0.68946,-0.34766 z m -0.07226,0.88476 c 0.5189,0 0.68554,0.27441 0.68554,0.59375 l -0.0039,0 0,0.23438 c -0.4789,0.006 -0.95794,0.0117 -1.43164,0.0117 0,-0.3752 0.0928,-0.83985 0.75,-0.83985 z m 0.96875,4.11719 c -0.061,0.0102 -0.12375,0.0215 -0.21485,0.0215 -0.1064,0 -0.15211,-0.0106 -0.22851,-0.0215 0.025,0.4258 0.0625,1.09776 0.0625,1.26563 -0.3717,0.0281 -0.73768,0.0293 -1.10938,0.0293 0.016,-0.48725 0.01802,-0.84832 0.04102,-1.27343 -0.1169,0.0221 -0.16457,0.0293 -0.23047,0.0293 -0.058,0 -0.10078,-0.0123 -0.20898,-0.0293 0.031,0.42511 0.04492,0.84795 0.04492,1.27343 -0.2138,0 -0.43275,0.008 -0.65235,0.008 -0.213,0 -0.4337,-0.008 -0.63672,-0.0195 0,-0.41987 0.01841,-0.84986 0.06641,-1.28125 -0.07,0.0102 -0.12191,0.0234 -0.22851,0.0234 -0.1064,0 -0.15785,-0.0125 -0.21875,-0.0234 0,0.2014 0.02343,0.4646 0.02343,0.98046 0,0.9127 -0.01543,1.06236 -0.02343,1.18555 0.4478,-0.0334 0.84005,-0.043 1.41015,-0.043 l 0.69336,0 0,-0.002 c 0.57,0 0.9601,0.0113 1.4082,0.0449 l 0.002,0 c 0,-0.33053 -0.02735,-0.66787 -0.02735,-0.99805 0,-0.54902 0.01735,-1.0188 0.02735,-1.16992 z m -1.6543,2.94922 c -1.12,0 -1.85937,0.8829 -1.85937,1.93555 0,0.5602 0.02539,0.94098 0.02539,1.23242 0,0.18463 -0.01739,0.33579 -0.02539,0.45898 0.4476,-0.0338 0.83985,-0.0449 1.41015,-0.0449 l 0.69336,0 c 0.5698,0 0.96196,0.0113 1.41016,0.0449 -0.016,-0.1236 -0.02735,-0.27435 -0.02735,-0.45898 0,-0.24676 0.02735,-0.51961 0.02735,-1.01172 0,-1.2771 -0.3709,-2.15625 -1.6543,-2.15625 z m 0.01367,0.88281 c 0.8352,0 1.35547,0.5101 1.35547,1.28321 l -0.0019,0 c 0,0.26841 -0.01639,0.40821 -0.02539,0.58203 -0.096,0.006 -0.71554,0.006 -0.99024,0.006 l -0.90625,0 c -0.2756,0 -0.89714,2.5e-4 -0.99414,-0.006 -0.016,-0.11205 -0.01562,-0.26447 -0.01562,-0.49414 0,-0.84044 0.51912,-1.3711 1.57812,-1.3711 z m 1.64063,5.05078 c -0.061,0.0109 -0.12375,0.0215 -0.21485,0.0215 -0.1064,0 -0.15211,-0.0108 -0.22851,-0.0215 0.025,0.42547 0.0625,1.09775 0.0625,1.26563 -0.3717,0.0282 -0.73768,0.0293 -1.10938,0.0293 0.016,-0.48723 0.01802,-0.84762 0.04102,-1.27344 -0.1169,0.022 -0.16457,0.0293 -0.23047,0.0293 -0.058,-10e-6 -0.10078,-0.0126 -0.20898,-0.0293 0.031,0.42547 0.04492,0.84764 0.04492,1.27344 -0.2138,0 -0.43275,0.004 -0.65235,0.004 -0.213,0 -0.4337,-0.004 -0.63672,-0.0156 0,-0.41988 0.01841,-0.84986 0.06641,-1.28125 -0.07,0.0109 -0.12191,0.0234 -0.22851,0.0234 -0.1064,0 -0.15785,-0.0127 -0.21875,-0.0234 0,0.20173 0.02343,0.46334 0.02343,0.97851 0,0.9127 -0.01543,1.06429 -0.02343,1.1875 0.4478,-0.0334 0.84005,-0.0449 1.41015,-0.0449 l 0.69336,0 c 0.57,0 0.9601,0.0114 1.4082,0.0449 l 0.002,0 c 0,-0.33052 -0.02735,-0.66785 -0.02735,-0.99804 0,-0.54867 0.01735,-1.01845 0.02735,-1.16993 z m 104.972651,1.19727 0.5,0.21875 0,4.50195 -0.5,-0.21875 0,-2.09765 0,-0.0176 c -0.002,-0.17917 -0.0681,-0.33361 -0.19726,-0.46289 -0.13132,-0.13131 -0.29457,-0.19727 -0.48828,-0.19727 -0.18121,0 -0.33735,0.0661 -0.47071,0.19727 -0.12914,0.1271 -0.19697,0.28676 -0.20117,0.48047 l 0,2.3164 -0.5,-0.21875 0,-2.10547 c 0,-0.32503 0.11643,-0.60283 0.34766,-0.83203 0.23123,-0.22905 0.5091,-0.34375 0.83398,-0.34375 0.25421,0 0.48004,0.0695 0.67578,0.20899 l 0,-1.42969 z m -11.19531,0 0.49805,0.21875 0,1.21484 c 0.19792,-0.14167 0.42539,-0.21289 0.68164,-0.21289 0.32503,0 0.60284,0.1147 0.83203,0.34375 0.22905,0.2292 0.34375,0.50715 0.34375,0.83203 l 0,1.14844 c 0,0.32504 -0.1147,0.60299 -0.34375,0.83203 -0.22919,0.2292 -0.50715,0.34375 -0.83203,0.34375 -0.32489,0 -0.60276,-0.11455 -0.83399,-0.34375 -0.23123,-0.22904 -0.3457,-0.50714 -0.3457,-0.83203 l 0,-3.54492 z m 7.40039,1.2207 c 0.32489,0 0.59417,0.11291 0.80664,0.33789 0.24999,0.26671 0.375,0.54631 0.375,0.83789 l 0,0.27344 -0.5,-0.2207 0,-0.0449 c -0.004,-0.19371 -0.072,-0.35336 -0.20117,-0.48047 -0.13336,-0.1313 -0.28599,-0.19727 -0.46094,-0.19727 -0.19996,0 -0.36672,0.0668 -0.49804,0.20117 -0.13132,0.13437 -0.19727,0.30222 -0.19727,0.5 l 1.27148,0.52344 c 0.39862,0.16186 0.59766,0.43788 0.59766,0.82617 l 0,0.0234 c 0,0.21669 -0.0817,0.40951 -0.24414,0.57617 -0.24155,0.2292 -0.5177,0.34375 -0.83008,0.34375 -0.19792,0 -0.37857,-0.0434 -0.54101,-0.1289 l 0.1875,-0.47071 c 0.10209,0.0625 0.22016,0.0937 0.35351,0.0937 0.21873,0 0.37651,-0.0689 0.47656,-0.20312 0.0542,-0.0734 0.082,-0.14369 0.082,-0.21289 0,-0.17204 -0.10762,-0.30929 -0.32227,-0.41211 l -1.0293,-0.41992 0,1.7539 -0.5,-0.21875 0,-2.10547 c 0,-0.32503 0.1147,-0.60283 0.34375,-0.83203 0.22905,-0.22905 0.5052,-0.34375 0.83008,-0.34375 z m -3.10742,0 c 0.32503,0 0.60313,0.1147 0.83203,0.34375 0.22919,0.2292 0.34375,0.50715 0.34375,0.83203 l 0,2.32422 -0.5,-0.21875 0,-2.09765 0,-0.008 c 0,-0.18324 -0.0677,-0.34147 -0.20117,-0.47265 -0.13321,-0.1313 -0.29459,-0.19727 -0.48438,-0.19727 -0.1812,0 -0.3372,0.0661 -0.4707,0.19727 -0.12899,0.12711 -0.19697,0.28676 -0.20117,0.48047 l 0,0.22265 -0.5,-0.21875 0,-0.0117 c 0,-0.31659 0.11643,-0.59454 0.34766,-0.83203 0.22497,-0.22905 0.50284,-0.34375 0.83398,-0.34375 z m -5.27539,0 0.5,0.21875 0,2.42774 c -0.002,0.2417 -0.0835,0.44474 -0.24219,0.60937 -0.15619,0.16244 -0.35938,0.24414 -0.60937,0.24414 -0.23327,0 -0.43295,-0.0817 -0.59961,-0.24414 -0.15823,0.16244 -0.35978,0.24414 -0.60352,0.24414 -0.2353,0 -0.4349,-0.0833 -0.60156,-0.25 -0.16666,-0.16666 -0.25,-0.36635 -0.25,-0.59961 l 0,-2.65039 0.5,0.21875 0.002,2.41602 c 0,0.10427 0.0366,0.19272 0.10742,0.26562 0.071,0.0731 0.15416,0.10938 0.25,0.10938 0.0938,0 0.1734,-0.0364 0.24219,-0.10938 0.0688,-0.0729 0.10352,-0.16135 0.10352,-0.26562 l -0.002,-2.63477 0.5,0.21875 0.002,2.41602 0,0.002 c 0,0.10006 0.0366,0.18867 0.10742,0.26367 0.0688,0.0731 0.15213,0.10938 0.25,0.10938 0.0938,0 0.1734,-0.0364 0.24219,-0.10938 0.0688,-0.0729 0.10351,-0.16135 0.10351,-0.26562 l -0.002,-2.63477 z m -4.07031,0 c 0.32488,0 0.59417,0.11291 0.80664,0.33789 0.24999,0.26671 0.375,0.54631 0.375,0.83789 l 0,0.27344 -0.5,-0.2207 0,-0.0449 c -0.004,-0.19371 -0.0699,-0.35336 -0.19922,-0.48047 -0.13321,-0.1313 -0.28794,-0.19727 -0.46289,-0.19727 -0.19997,0 -0.36673,0.0668 -0.49805,0.20117 -0.13132,0.13437 -0.19531,0.30222 -0.19531,0.5 l 1.26953,0.52344 c 0.39862,0.16186 0.59766,0.43788 0.59766,0.82617 l 0,0.0234 c 0,0.21669 -0.0817,0.40951 -0.24414,0.57617 -0.24156,0.2292 -0.5177,0.34375 -0.83008,0.34375 -0.19793,0 -0.37858,-0.0434 -0.54102,-0.1289 l 0.1875,-0.47071 c 0.10209,0.0625 0.2203,0.0937 0.35352,0.0937 0.21872,0 0.37846,-0.0689 0.47851,-0.20312 0.0542,-0.0734 0.0801,-0.14369 0.0801,-0.21289 0,-0.17204 -0.10761,-0.30929 -0.32226,-0.41211 l -1.0293,-0.41992 0,1.7539 -0.5,-0.21875 0,-2.10547 c 0,-0.32503 0.1147,-0.60283 0.34375,-0.83203 0.22919,-0.22905 0.50519,-0.34375 0.83008,-0.34375 z m -3.10743,0 c 0.32504,0 0.60299,0.1147 0.83204,0.34375 0.22904,0.2292 0.34375,0.50715 0.34375,0.83203 l 0,2.32422 -0.5,-0.21875 0,-2.09765 0,-0.008 c 0,-0.18324 -0.0659,-0.34132 -0.19922,-0.47265 -0.13336,-0.1313 -0.29474,-0.19727 -0.48438,-0.19727 -0.1812,0 -0.3393,0.0661 -0.47265,0.19727 -0.12915,0.12711 -0.19512,0.28676 -0.19922,0.48047 l 0,0.22265 -0.5,-0.21875 0,-0.0117 c 0,-0.31659 0.11447,-0.59454 0.3457,-0.83203 0.22498,-0.22905 0.50285,-0.34375 0.83398,-0.34375 z m -3.11328,0 c 0.32503,0 0.60313,0.1147 0.83203,0.34375 0.2292,0.22919 0.34375,0.50714 0.34375,0.83203 l 0,1.14844 c 0,0.32503 -0.11455,0.60298 -0.34375,0.83203 -0.2289,0.22919 -0.50714,0.34375 -0.83203,0.34375 -0.32488,0 -0.59221,-0.11291 -0.80468,-0.33789 -0.24999,-0.26657 -0.375,-0.54616 -0.375,-0.83789 l 0,-0.27344 0.5,0.22071 0,0.043 c 0.004,0.19371 0.0702,0.35546 0.19921,0.48242 0.13351,0.13131 0.28795,0.19726 0.4629,0.19726 0.19996,0 0.36506,-0.0672 0.49609,-0.20117 0.13132,-0.13438 0.19726,-0.30026 0.19726,-0.49804 l -1.85546,-0.82618 0,-0.29297 c 0,-0.33739 0.11447,-0.61534 0.3457,-0.83203 0.24359,-0.22905 0.5216,-0.34375 0.83398,-0.34375 z m 12.47266,0.50586 c -0.20011,0 -0.36679,0.0661 -0.5,0.19727 -0.12928,0.1271 -0.19512,0.28676 -0.19922,0.48047 l 0,1.13086 c 0.004,0.19371 0.0699,0.35546 0.19922,0.48242 0.13321,0.13131 0.28794,0.19726 0.46289,0.19726 0.1812,0 0.34258,-0.0661 0.48438,-0.19726 0.13946,-0.12914 0.20898,-0.29074 0.20898,-0.48242 l 0,-1.13086 0,-0.0176 c -0.002,-0.17917 -0.0681,-0.33361 -0.19727,-0.46289 -0.13117,-0.13131 -0.28403,-0.19727 -0.45898,-0.19727 z m -12.45313,0 c -0.19996,0 -0.36649,0.0658 -0.5,0.19727 -0.12084,0.11896 -0.18679,0.26616 -0.19726,0.4414 l 1.35351,0.60157 0,-0.5625 0,-0.008 c 0,-0.18324 -0.0661,-0.34132 -0.19726,-0.47265 -0.13118,-0.1313 -0.28404,-0.19727 -0.45899,-0.19727 z m -82.523431,0.21289 c -0.4482,0.0335 -0.84036,0.043 -1.41016,0.043 l -0.69336,0 c -0.5699,0 -0.96255,-0.01 -1.41015,-0.043 0.016,0.1232 0.02539,0.27436 0.02539,0.45899 0,0.18498 -0.01739,0.33578 -0.02539,0.45898 0.4476,-0.0335 0.84025,-0.0449 1.41015,-0.0449 l 0.69336,0 c 0.5698,0 0.96196,0.0114 1.41016,0.0449 -0.016,-0.12355 -0.02735,-0.27435 -0.02735,-0.45898 0,-0.18463 0.01735,-0.33578 0.02735,-0.45899 z m -3.51367,1.57618 c 0.016,0.16789 0.02539,0.33566 0.02539,0.5039 0,0.16822 -0.01739,0.34189 -0.02539,0.50977 l 1.61914,1.00195 0,0.0508 -0.20899,0 c -0.5699,0 -0.96431,-0.0115 -1.41211,-0.0449 0.016,0.1232 0.02539,0.27631 0.02539,0.46094 0,0.18499 -0.01739,0.33577 -0.02539,0.45898 0.4478,-0.0335 0.84221,-0.0469 1.41211,-0.0469 l 0.69336,0 c 0.5698,0 0.96196,0.0134 1.41016,0.0469 -0.016,-0.1232 -0.02735,-0.27595 -0.02735,-0.46094 0,-0.20174 0.02735,-0.44112 0.02735,-0.82226 0,-0.56578 -0.04498,-0.77259 -0.17188,-0.96875 -0.1476,-0.22372 -0.37363,-0.36524 -0.67383,-0.36524 -0.4946,0 -0.8105,0.31258 -0.9375,0.86719 -0.5751,-0.35846 -1.15526,-0.78234 -1.73046,-1.1914 z m 2.55273,1.18164 c 0.6013,3.5e-4 0.66797,0.25673 0.66797,0.86718 -0.4611,0.0111 -0.91737,0.0156 -1.37891,0.0156 0,-0.0447 -0.01562,-0.0816 -0.01562,-0.1211 0,-0.49317 0.24756,-0.76171 0.72656,-0.76171 z m 0.96094,2.69531 c -0.4482,0.0338 -0.84036,0.0449 -1.41016,0.0449 l -0.69336,0 c -0.5703,0 -0.96255,-0.011 -1.41015,-0.0449 0.016,0.12356 0.02539,0.274 0.02539,0.45898 0,0.18499 -0.01739,0.33579 -0.02539,0.45899 0.4476,-0.0335 0.83985,-0.0449 1.41015,-0.0449 l 0.69336,0 c 0.5698,0 0.96196,0.0114 1.41016,0.0449 -0.016,-0.12319 -0.02735,-0.274 -0.02735,-0.45899 0,-0.18498 0.01735,-0.33542 0.02735,-0.45898 z m -3.51367,1.49805 c 0.016,0.17941 0.02343,0.33509 0.02343,0.49218 0,0.1567 -0.01543,0.31986 -0.02343,0.47657 0.3461,0.11727 0.69656,0.24675 1.04296,0.38671 0.016,0.24083 0.01563,0.47597 0.01563,0.7168 0,0.19616 5.7e-4,0.38588 -0.01563,0.58203 -0.3464,0.15112 -0.69186,0.27475 -1.04296,0.38086 0.016,0.0897 0.02343,0.17431 0.02343,0.26367 0,0.0897 -0.01543,0.17319 -0.02343,0.2793 0.5649,-0.27434 2.37631,-1.11404 3.53711,-1.5957 -0.016,-0.0726 -0.02344,-0.13834 -0.02344,-0.21094 0,-0.0726 0.01444,-0.13995 0.02344,-0.21289 -1.1608,-0.47642 -2.70751,-1.13278 -3.53711,-1.55859 z m 1.34765,1.48242 c 0.4127,0.16265 0.81549,0.32096 1.21289,0.5 -0.3974,0.19059 -0.80019,0.3647 -1.21289,0.52734 l 0,-1.02734 z m -1.34765,2.61718 c 0.016,0.15112 0.02539,0.3036 0.02539,0.45508 0,0.15147 -0.01739,0.30583 -0.02539,0.46289 0.7074,0.0391 1.57172,0.1349 2.36132,0.22461 l 0,0.0117 c -0.7896,0.41987 -1.57182,0.83515 -2.36132,1.23828 0,0.0335 0.01757,0.0716 0.01757,0.10547 0,0.0335 -0.0013,0.0739 -0.01757,0.10742 0.7688,0.39753 1.5431,0.80083 2.3125,1.22071 l 0,0.01 c -0.7694,0.11763 -1.5437,0.17037 -2.3125,0.22656 0.016,0.0897 0.02539,0.17795 0.02539,0.26172 0,0.0896 -0.01739,0.17432 -0.02539,0.26368 1.1708,-0.23525 2.34237,-0.42107 3.51367,-0.57813 -0.016,-0.0785 -0.02735,-0.14999 -0.02735,-0.22852 0,-0.0726 0.01735,-0.15165 0.02735,-0.2246 -0.8096,-0.40871 -1.71725,-0.88391 -2.43555,-1.29297 0.759,-0.44256 1.62595,-0.90316 2.43555,-1.30664 -0.016,-0.0785 -0.02735,-0.16171 -0.02735,-0.24024 0,-0.0782 0.01735,-0.15584 0.02735,-0.23437 -1.1709,-0.14555 -2.79577,-0.34247 -3.51367,-0.48243 z m 107.341791,4.37696 a 7.5094039,7.5094039 0 0 1 7.50977,7.50781 7.5094039,7.5094039 0 0 1 -7.50977,7.50977 7.5094039,7.5094039 0 0 1 -7.50976,-7.50977 7.5094039,7.5094039 0 0 1 7.50976,-7.50781 z m -11.86914,0.55859 c 1.65661,0 2.6875,1.18222 2.6875,3.08008 0,1.88177 -1.02182,3.0625 -2.6543,3.0625 -1.45556,0 -2.42957,-0.84452 -2.50195,-2.1875 l 1.17383,0 c 0.0724,0.74789 0.54704,1.17578 1.29492,1.17578 0.93285,0 1.48047,-0.75652 1.48047,-2.03516 0,-1.29472 -0.5706,-2.0664 -1.51953,-2.0664 -0.41817,0 -0.76507,0.14432 -0.99024,0.42578 -0.12866,0.16083 -0.19324,0.31332 -0.26562,0.62695 l -1.14844,0 c 0.0402,-0.50663 0.14329,-0.82849 0.39258,-1.1582 0.45034,-0.59509 1.17423,-0.92383 2.05078,-0.92383 z m -3.27734,0.0957 0,5.86329 -1.20703,0 0,-5.86329 1.20703,0 z m -1.83594,0 0,1.00586 -1.77734,0 0,4.85743 -1.20703,0 0,-4.85743 -1.7129,0 0,-1.00586 4.69727,0 z m -5.31055,0 0,5.86329 -1.207029,0 0,-5.86329 1.207029,0 z m -1.964841,0 0,1.00586 -3,0 3,3.85157 0,1.00586 -4.408203,0 0,-1.00586 2.992187,0 -2.992187,-3.85157 0,-1.00586 4.408203,0 z m -5.310547,0 0,5.86329 -4.382812,0 0,-1.00586 3.175781,0 0,-1.51953 -2.806641,0 0,-1.00586 2.806641,0 0,-1.32618 -3.03125,0 0,-1.00586 4.238281,0 z m -5.283203,0 0,5.86329 -1.207031,0 0,-4.05469 -2.355469,4.05469 -1.207031,0 0,-5.86329 1.207031,0 0,3.98829 2.324219,-3.98829 1.238281,0 z m 34.917971,1.64649 c -1.12441,0 -2.14112,0.45931 -2.875,1.19922 l 0.58008,0.57031 c 0.56457,-0.57931 1.40472,-0.92187 2.27734,-0.92187 1.71616,0 3.20117,1.28806 3.20117,3.15429 0,1.89638 -1.49149,3.20548 -3.20703,3.2461 -0.84881,0.0202 -1.66146,-0.29519 -2.21289,-0.79493 l -0.60547,0.57618 c 0.72601,0.6888 1.73464,1.11718 2.81445,1.11718 2.23636,0 4.07618,-1.85904 4.07618,-4.0957 0,-2.23675 -1.8124,-4.05078 -4.04883,-4.05078 z m -3.53125,1.89258 c -0.54059,1.48278 0.0286,3.019 1.00195,3.73828 1.95091,1.44163 3.11131,0.17353 3.22266,-0.42578 0.2824,0.10507 0.54566,0.13988 0.76758,0.12109 0.43009,-0.0365 0.77498,-0.25871 0.92382,-0.61914 0.51195,-1.23995 -0.61919,-2.21929 -0.78711,-2.36133 -0.01,-0.008 -0.0149,-0.013 -0.0176,-0.0156 l -0.20508,0.26172 -0.01,0.0117 c 0.009,0.008 1.07879,1.01214 0.67383,1.84375 -0.24804,0.50875 -1.0007,0.12202 -1.24805,-0.0527 0.0546,-2.19992 -1.54271,-2.96209 -2.01953,-2.1582 -0.12731,0.2149 -0.20234,1.63192 1.38477,2.6582 l 0.0117,0.008 c 0.0598,-0.4113 -0.0684,-0.77734 -0.0684,-0.77734 -0.77947,-0.45743 -0.77445,-1.37613 -0.78125,-1.56445 -0.0755,-0.11607 -0.39063,-0.18555 -0.39063,-0.18555 0.91692,-0.20894 1.31314,1.30032 1.33399,2.09375 0.0315,1.17931 -0.84483,1.71892 -1.84766,1.10547 -1.22505,-0.74937 -1.54753,-2.11839 -1.30469,-3.07227 l -0.64062,-0.60937 z m -9.54102,3.79101 -1.65625,5.86328 -1.08593,0 -0.95704,-4.57617 -0.98046,4.57617 -1.08594,0 -1.625,-5.86328 1.27929,0 0.87696,4.39844 0.94922,-4.39844 1.18945,0 0.9082,4.39063 0.90821,-4.39063 1.27929,0 z m -9.77343,0 2.08203,5.86328 -1.23047,0 -0.39258,-1.18359 -2.195313,0 -0.386719,1.18359 -1.238281,0 2.027343,-5.86328 1.33399,0 z m -3.632818,0 0,1.00586 -1.777344,0 0,4.85742 -1.205078,0 0,-4.85742 -1.71289,0 0,-1.00586 4.695312,0 z m -4.916015,0 0,1.00586 -1.777344,0 0,4.85742 -1.205078,0 0,-4.85742 -1.712891,0 0,-1.00586 4.695313,0 z m -73.310548,0.10547 c 0.693,0.0525 1.10742,0.51586 1.10742,1.22461 0,0.84525 -0.55548,1.33789 -1.52148,1.33789 -0.9345,0 -1.48047,-0.48812 -1.48047,-1.32812 0,-0.68775 0.42431,-1.16613 1.10156,-1.23438 l 0,0.70508 c -0.3675,0.0945 -0.50976,0.23994 -0.50976,0.52344 0,0.37275 0.33742,0.59961 0.88867,0.59961 0.26775,0 0.5195,-0.0533 0.6875,-0.14258 0.1575,-0.084 0.24023,-0.24703 0.24023,-0.45703 0,-0.29925 -0.14092,-0.43944 -0.51367,-0.52344 l 0,-0.70508 z m 81.216798,1.27735 -0.763672,2.29296 1.527345,0 -0.763673,-2.29296 z m 22.375003,1.51562 -0.008,0.82422 2.68555,0.32422 0.008,-0.82422 -2.68554,-0.32422 z m -45.007811,0.0918 0,0.54492 -0.7461,0 0,-0.54492 0.7461,0 z m -59.04688,0.0234 c 0.2835,0 0.54659,0.0411 0.74609,0.10938 0.5145,0.189 0.82422,0.6465 0.82422,1.21875 0,0.81375 -0.58686,1.3125 -1.53711,1.3125 -0.90825,0 -1.46484,-0.49363 -1.46484,-1.29688 0,-0.63525 0.36147,-1.14975 0.91797,-1.3125 l 0,0.72461 c -0.22575,0.0892 -0.35742,0.2928 -0.35742,0.56055 0,0.21 0.09049,0.37938 0.24804,0.48438 0.105,0.0683 0.2303,0.095 0.49805,0.10546 l 0,-1.90234 c 0.063,-0.005 0.0882,-0.004 0.125,-0.004 z m 67.503906,0.69336 c 0.62974,0 1.134551,0.28407 1.480469,0.83399 l 0,-0.70117 0.683594,0 0,6.58203 -0.744141,0 0,-2.42188 c -0.390267,0.47897 -0.826556,0.69141 -1.429687,0.69141 -1.197403,0 -1.986329,-0.96605 -1.986329,-2.44727 0,-1.56105 0.763216,-2.53711 1.996094,-2.53711 z m -4.070312,0 c 0.67409,0 1.232542,0.19511 1.542968,0.54102 0.212874,0.23948 0.302572,0.50558 0.320313,0.9668 l -0.746094,0 c -0.06208,-0.56765 -0.398014,-0.82422 -1.089843,-0.82422 -0.665222,0 -1.039063,0.24792 -1.039063,0.6914 l 0,0.19532 c 0,0.31044 0.186093,0.44272 0.771484,0.51367 1.046619,0.13305 1.206411,0.16985 1.490235,0.28515 0.541048,0.22174 0.816406,0.6371 0.816406,1.24024 0,0.84261 -0.585211,1.375 -1.525391,1.375 -0.585403,0 -1.055594,-0.20411 -1.36914,-0.49805 -0.313541,-0.29395 -0.623526,-0.55646 -0.919922,-0.83594 l 0,-2.38281 c 0,-0.82487 0.603861,-1.26758 1.748047,-1.26758 z m -3.917969,0 c 0.478957,0 0.841838,0.28474 1.267578,0.97657 l 0,-0.84375 0.683594,0 0,3.30078 -0.744141,-0.72656 0,-0.3379 c 0,-0.66522 -0.168648,-1.1002 -0.523437,-1.35742 -0.230614,-0.16852 -0.452358,-0.2216 -0.966797,-0.23047 l 0,-0.7539 c 0.124181,-0.0177 0.185637,-0.0274 0.283203,-0.0274 z m -3.306645,0 c 1.08209,0 1.78321,0.55958 1.78321,1.41993 0,0.72731 -0.37283,1.0718 -1.47266,1.33789 l -0.69141,0.16992 c -0.51443,0.12417 -0.70312,0.30944 -0.70312,0.64648 0,0.55291 0.84275,0.72852 1.49023,0.72852 0.39913,0 1.28054,-0.11542 1.4668,-0.31055 0.1153,-0.13304 0.21875,-0.2007 0.21875,-0.5957 l 0,-3.38086 0.73633,0 c -0.002,1.13595 0.0026,2.27315 0,3.4082 -0.0132,1.21853 -1.15325,1.56055 -2.36133,1.56055 -1.17079,0 -2.33789,-0.39938 -2.33789,-1.47266 0,-0.69183 0.39006,-1.07318 1.3125,-1.29492 l 0.70899,-0.16797 c 0.60312,-0.14191 0.86132,-0.33783 0.86132,-0.66601 0,-0.42574 -0.38124,-0.69922 -0.98437,-0.69922 -0.59428,0 -0.9139,0.25631 -0.93164,0.74414 l -0.78125,0 c 0.009,-0.91357 0.61232,-1.42774 1.68554,-1.42774 z m -55.8457,0.0723 0,1.12891 c 0.4305,-0.0472 0.64649,-0.23114 0.64649,-0.55664 0,-0.18375 -0.08928,-0.35204 -0.23633,-0.45704 -0.105,-0.0683 -0.21591,-0.0995 -0.41016,-0.11523 z m 103.673831,0.43945 -0.008,0.82422 2.68554,0.32422 0.01,-0.82422 -2.6875,-0.32422 z m -36.410158,0.17969 c -0.816005,0 -1.347656,0.71943 -1.347656,1.82813 0,1.05548 0.540519,1.77343 1.347656,1.77343 0.780523,0 1.296875,-0.70981 1.296875,-1.80078 0,-1.09096 -0.516352,-1.80078 -1.296875,-1.80078 z m -8.408203,0.79688 4.695312,4.4746 -1.265624,0 c -0.0099,-0.0513 -0.02212,-0.10315 -0.03906,-0.15625 -0.216987,-0.68017 -0.944833,-1.23242 -1.625,-1.23242 -0.680167,0 -1.054878,0.55225 -0.837891,1.23242 0.01695,0.0531 0.03763,0.10488 0.06055,0.15625 l -0.988281,0 0,-4.4746 z m -57.69531,0.68164 0,0.77734 -2.07422,0.57227 2.07422,0.61523 0,0.77539 -2.83594,-0.99219 0,-0.77148 2.83594,-0.97656 z m 60.898435,0.31445 0,0.83203 c 0,0.24835 0.07123,0.39952 0.292969,0.60352 0.301559,0.27496 0.665001,0.41796 1.099609,0.41796 0.57653,0 0.914063,-0.276 0.914063,-0.74609 0,-0.48783 -0.327791,-0.73626 -1.117188,-0.85156 -0.780523,-0.10644 -0.941104,-0.14055 -1.189453,-0.25586 z m 8.962891,0.625 a 0.77403373,0.77403373 0 0 1 0.773437,0.77539 0.77403373,0.77403373 0 0 1 -0.773437,0.77344 0.77403373,0.77403373 0 0 1 -0.775391,-0.77344 0.77403373,0.77403373 0 0 1 0.775391,-0.77539 z m -72.607426,2.04687 c 0.12075,0.13125 0.20066,0.16797 0.34766,0.16797 l 1.57422,0 c 0.5775,0 0.87109,0.39366 0.87109,1.16016 0,0.7665 -0.32617,1.16564 -0.98242,1.21289 l 0,-0.70898 c 0.294,-0.0367 0.38867,-0.15729 0.38867,-0.51954 0,-0.2835 -0.0942,-0.42578 -0.2832,-0.42578 -0.0945,0 -0.1787,0.0483 -0.2207,0.12696 -0.0525,0.0997 -0.05163,0.0986 -0.10938,0.46093 l -0.05273,0.29493 c -0.0945,0.56175 -0.38333,0.83398 -0.89258,0.83398 -0.2415,0 -0.44028,-0.068 -0.58203,-0.19922 -0.168,-0.16275 -0.26758,-0.41011 -0.26758,-0.66211 0,-0.315 0.13655,-0.60408 0.4043,-0.86133 -0.147,0 -0.20116,-0.0158 -0.28516,-0.084 l 0,-0.79688 0.08984,0 z m 1.25,0.88672 -0.19922,0 c -0.42525,0 -0.66796,0.20928 -0.66796,0.58203 0,0.24675 0.13179,0.40039 0.34179,0.40039 0.2205,0 0.32567,-0.11542 0.38867,-0.41992 l 0.04688,-0.25195 c 0.0368,-0.19425 0.04794,-0.22655 0.08984,-0.31055 z m 1.4375,3.49414 0,0.40821 0.76172,0 0,0.73437 -0.76172,0 0,0.36328 -0.48828,0 0,-0.36328 -1.74218,0 c -0.44625,0 -0.66602,-0.23575 -0.66602,-0.71875 0,-0.16275 0.01464,-0.29258 0.05664,-0.42383 l 0.51562,0 c -0.0105,0.0735 -0.01562,0.11547 -0.01562,0.16797 0,0.19425 0.05654,0.24024 0.30859,0.24024 l 1.54297,0 0,-0.40821 0.48828,0 z m -2.6875,1.75 c 0.12075,0.13125 0.20066,0.16797 0.34766,0.16797 l 1.57422,0 c 0.5775,0 0.87109,0.39366 0.87109,1.16016 0,0.7665 -0.32617,1.16564 -0.98242,1.21289 l 0,-0.70899 c 0.294,-0.0367 0.38867,-0.15728 0.38867,-0.51953 0,-0.2835 -0.0942,-0.42382 -0.2832,-0.42382 -0.0945,0 -0.1787,0.0463 -0.2207,0.125 -0.0525,0.0998 -0.05163,0.10069 -0.10938,0.46289 l -0.05273,0.29296 c -0.0945,0.56175 -0.38333,0.83594 -0.89258,0.83594 -0.2415,0 -0.44028,-0.07 -0.58203,-0.20117 -0.168,-0.16275 -0.26758,-0.40816 -0.26758,-0.66016 0,-0.315 0.13655,-0.60407 0.4043,-0.86132 -0.147,0 -0.20116,-0.0158 -0.28516,-0.084 l 0,-0.79883 0.08984,0 z m 1.25,0.88868 -0.19922,0 c -0.42525,0 -0.66796,0.20928 -0.66796,0.58203 0,0.24675 0.13179,0.39843 0.34179,0.39843 0.2205,0 0.32567,-0.11542 0.38867,-0.41992 l 0.04688,-0.25195 c 0.0368,-0.19425 0.04794,-0.22459 0.08984,-0.30859 z m 2.48828,2.23242 0,0.73437 -0.65624,0 0,-0.73437 0.65624,0 z m -0.99218,0 0,0.73437 -2.83594,0 0,-0.73437 2.83594,0 z m 0.04101,1.18554 c 0.005,0.042 0.0059,0.067 0.0059,0.0879 0,0.336 -0.22026,0.62961 -0.60351,0.78711 l 0.55664,0 0,0.73633 -2.83594,0 0,-0.73633 1.50781,0 c 0.4305,0 0.64649,-0.21403 0.64649,-0.64453 0,-0.0787 -0.0055,-0.13072 -0.02149,-0.23047 l 0.74414,0 z m -2.78711,2.11329 c 0.12075,0.13125 0.20066,0.16796 0.34766,0.16796 l 1.57422,0 c 0.5775,0 0.87109,0.39366 0.87109,1.16016 0,0.7665 -0.32617,1.16564 -0.98242,1.21289 l 0,-0.70898 c 0.294,-0.0368 0.38867,-0.15728 0.38867,-0.51953 0,-0.2835 -0.0942,-0.42579 -0.2832,-0.42579 -0.0945,0 -0.1787,0.0482 -0.2207,0.12696 -0.0525,0.0997 -0.05163,0.0986 -0.10938,0.46093 l -0.05273,0.29493 c -0.0945,0.56175 -0.38333,0.83398 -0.89258,0.83398 -0.2415,0 -0.44028,-0.068 -0.58203,-0.19922 -0.168,-0.16275 -0.26758,-0.41011 -0.26758,-0.66211 0,-0.315 0.13655,-0.60408 0.4043,-0.86133 -0.147,0 -0.20116,-0.0157 -0.28516,-0.084 l 0,-0.79687 0.08984,0 z m 1.25,0.88671 -0.19922,0 c -0.42525,0 -0.66796,0.20929 -0.66796,0.58204 0,0.24675 0.13179,0.40039 0.34179,0.40039 0.2205,0 0.32567,-0.11543 0.38867,-0.41993 l 0.04688,-0.25195 c 0.0368,-0.19425 0.04794,-0.22655 0.08984,-0.31055 z m 0.56055,2.20704 c 0.62475,0 0.98242,0.34546 0.98242,0.94921 0,0.38325 -0.14203,0.64157 -0.45703,0.85157 l 0.41016,0 0,0.73437 -2.83594,0 0,-0.73437 1.70117,0 c 0.336,0 0.55664,-0.23675 0.55664,-0.59375 0,-0.315 -0.17181,-0.47266 -0.50781,-0.47266 l -1.75,0 0,-0.73437 1.90039,0 z m -0.58789,3.0332 c 0.2835,0 0.54659,0.0411 0.74609,0.10937 0.5145,0.189 0.82422,0.6465 0.82422,1.21875 0,0.81375 -0.58686,1.3125 -1.53711,1.3125 -0.90825,0 -1.46484,-0.49362 -1.46484,-1.29687 0,-0.63525 0.36147,-1.14975 0.91797,-1.3125 l 0,0.72461 c -0.22575,0.0892 -0.35742,0.29279 -0.35742,0.56054 0,0.21 0.09049,0.37938 0.24804,0.48438 0.105,0.0683 0.2303,0.095 0.49805,0.10547 l 0,-1.90235 c 0.063,-0.005 0.0882,-0.004 0.125,-0.004 z m 0.36328,0.76562 0,1.12891 c 0.4305,-0.0472 0.64649,-0.23114 0.64649,-0.55664 0,-0.18375 -0.08928,-0.35203 -0.23633,-0.45703 -0.105,-0.0683 -0.21591,-0.0994 -0.41016,-0.11524 z m 1.10156,2.16407 0,0.4082 0.76172,0 0,0.73437 -0.76172,0 0,0.36328 -0.48828,0 0,-0.36328 -1.74218,0 c -0.44625,0 -0.66602,-0.23575 -0.66602,-0.71875 0,-0.16275 0.01464,-0.29257 0.05664,-0.42382 l 0.51562,0 c -0.0105,0.0735 -0.01562,0.11546 -0.01562,0.16796 0,0.19425 0.05654,0.24024 0.30859,0.24024 l 1.54297,0 0,-0.4082 0.48828,0 z m 0.09961,1.67773 c 0.005,0.042 0.0059,0.067 0.0059,0.0879 0,0.336 -0.22026,0.63156 -0.60351,0.78906 l 0.55664,0 0,0.73438 -2.83594,0 0,-0.73438 1.50781,0 c 0.4305,0 0.64649,-0.21598 0.64649,-0.64648 0,-0.0788 -0.0055,-0.13072 -0.02149,-0.23047 l 0.74414,0 z m -2.78711,2.11328 c 0.12075,0.13125 0.20066,0.16797 0.34766,0.16797 l 1.57422,0 c 0.5775,0 0.87109,0.39366 0.87109,1.16016 0,0.7665 -0.32617,1.16564 -0.98242,1.21289 l 0,-0.70899 c 0.294,-0.0367 0.38867,-0.15728 0.38867,-0.51953 0,-0.2835 -0.0942,-0.42578 -0.2832,-0.42578 -0.0945,0 -0.1787,0.0482 -0.2207,0.12695 -0.0525,0.0997 -0.05163,0.0986 -0.10938,0.46094 l -0.05273,0.29492 c -0.0945,0.56175 -0.38333,0.83399 -0.89258,0.83399 -0.2415,0 -0.44028,-0.0679 -0.58203,-0.19922 -0.168,-0.16275 -0.26758,-0.40816 -0.26758,-0.66016 0,-0.315 0.13655,-0.60408 0.4043,-0.86133 -0.147,0 -0.20116,-0.0158 -0.28516,-0.084 l 0,-0.79883 0.08984,0 z m 1.25,0.88672 -0.19922,0 c -0.42525,0 -0.66796,0.21123 -0.66796,0.58398 0,0.24675 0.13179,0.39844 0.34179,0.39844 0.2205,0 0.32567,-0.11542 0.38867,-0.41992 l 0.04688,-0.25195 c 0.0368,-0.19425 0.04794,-0.22655 0.08984,-0.31055 z m 0.03711,2.06055 c 0.399,0 0.79805,0.11568 1.06055,0.30468 0.26775,0.189 0.44531,0.53961 0.44531,0.88086 0,0.357 -0.15179,0.61057 -0.46679,0.78907 l 0.41992,0 0,0.73437 -3.98047,0 0,-0.73437 1.48047,0 c -0.315,-0.1785 -0.46094,-0.43207 -0.46094,-0.78907 0,-0.6825 0.64095,-1.18554 1.50195,-1.18554 z m -0.01172,0.73437 c -0.5145,0 -0.87695,0.25689 -0.87695,0.61914 0,0.3675 0.35842,0.6211 0.88867,0.6211 0.53025,0 0.89258,-0.2536 0.89258,-0.6211 0,-0.37275 -0.36355,-0.61914 -0.9043,-0.61914 z m 0.53516,4.07813 c 0.62475,0 0.98242,0.34547 0.98242,0.94922 0,0.38325 -0.14203,0.64156 -0.45703,0.85156 l 0.41016,0 0,0.73437 -2.83594,0 0,-0.73437 1.70117,0 c 0.336,0 0.55664,-0.23675 0.55664,-0.59375 0,-0.315 -0.17181,-0.47266 -0.50781,-0.47266 l -1.75,0 0,-0.73437 1.90039,0 z m 150.001951,3.02734 0,2.59375 c 0,0.4305 -0.11579,0.7358 -0.37304,0.9668 -0.27825,0.252 -0.68253,0.38867 -1.14453,0.38867 -0.462,0 -0.86629,-0.13667 -1.14454,-0.38867 -0.25725,-0.231 -0.37304,-0.5363 -0.37304,-0.9668 l 0,-2.59375 0.78711,0 0,2.59375 c 0,0.462 0.23697,0.68164 0.73047,0.68164 0.4935,0 0.73046,-0.21964 0.73046,-0.68164 l 0,-2.59375 0.78711,0 z m -16.88867,0 0,0.65625 -0.73437,0 0,-0.65625 0.73437,0 z m -9.3457,0 0,1.35938 c 0.18375,-0.2835 0.4295,-0.41407 0.78125,-0.41407 0.67725,0 1.19336,0.65011 1.19336,1.50586 0,0.38325 -0.11569,0.77192 -0.30469,1.04492 -0.19425,0.273 -0.54217,0.45313 -0.88867,0.45313 -0.35175,0 -0.5975,-0.13191 -0.78125,-0.41016 l 0,0.28907 -0.73438,0 0,-3.82813 0.73438,0 z m -125.011721,0.0703 0,2.07422 0.99219,0 0,-1.83398 0.65625,0 0,1.83398 0.86719,0 0,-1.98047 0.65624,0 0,2.76758 -3.82812,0 0,-2.86133 0.65625,0 z m 129.912111,0.21875 0,0.76172 0.36133,0 0,0.48828 -0.36133,0 0,1.74219 c 0,0.44625 -0.2377,0.66797 -0.7207,0.66797 -0.16275,0 -0.29258,-0.0166 -0.42383,-0.0586 l 0,-0.51368 c 0.0735,0.0105 0.11547,0.0156 0.16797,0.0156 0.19425,0 0.24023,-0.0586 0.24023,-0.31055 l 0,-1.54297 -0.4082,0 0,-0.48828 0.4082,0 0,-0.76172 0.73633,0 z m 16.02148,0.65625 c 0.38325,0 0.64157,0.14203 0.85157,0.45703 l 0,-0.41015 0.73437,0 0,2.83594 -0.73437,0 0,-1.70118 c 0,-0.336 -0.23675,-0.55664 -0.59375,-0.55664 -0.315,0 -0.47266,0.17377 -0.47266,0.50977 l 0,1.74805 -0.73438,0 0,-1.9004 c 0,-0.62474 0.34547,-0.98242 0.94922,-0.98242 z m -4.57617,0 c 0.357,0 0.61056,0.1518 0.78906,0.4668 l 0,-0.41992 0.73438,0 0,3.98047 -0.73438,0 0,-1.48047 c -0.1785,0.315 -0.43206,0.46094 -0.78906,0.46094 -0.6825,0 -1.18555,-0.64096 -1.18555,-1.50196 0,-0.399 0.11569,-0.79804 0.30469,-1.06054 0.189,-0.26775 0.53961,-0.44532 0.88086,-0.44532 z m -3.23437,0 c 0.336,0 0.62961,0.22027 0.78711,0.60352 l 0,-0.55664 0.73437,0 0,2.83594 -0.73437,0 0,-1.50782 c 0,-0.4305 -0.21599,-0.64453 -0.64649,-0.64453 -0.0788,0 -0.13072,0.004 -0.23047,0.0195 l 0,-0.74414 c 0.042,-0.005 0.0689,-0.006 0.0899,-0.006 z m -1.76758,0 c 0.86625,0 1.39648,0.57271 1.39648,1.50196 0,0.9345 -0.53084,1.50195 -1.40234,1.50195 -0.861,0 -1.40234,-0.57222 -1.40234,-1.48047 0,-0.96075 0.52095,-1.52344 1.4082,-1.52344 z m -4.51367,0 c 0.81375,0 1.3125,0.58882 1.3125,1.53907 0,0.90825 -0.49363,1.46484 -1.29688,1.46484 -0.63525,0 -1.14975,-0.36342 -1.3125,-0.91992 l 0.72461,0 c 0.0892,0.22575 0.29475,0.35742 0.5625,0.35742 0.21,0 0.37742,-0.0885 0.48242,-0.24609 0.0683,-0.105 0.095,-0.23225 0.10547,-0.5 l -1.90039,0 c -0.005,-0.063 -0.006,-0.0882 -0.006,-0.125 0,-0.2835 0.0411,-0.5466 0.10938,-0.7461 0.189,-0.5145 0.6465,-0.82422 1.21875,-0.82422 z m -9.3418,0 c 0.81375,0 1.3125,0.58882 1.3125,1.53907 0,0.90825 -0.49363,1.46484 -1.29688,1.46484 -0.63525,0 -1.14975,-0.36342 -1.3125,-0.91992 l 0.72461,0 c 0.0893,0.22575 0.29475,0.35742 0.5625,0.35742 0.21,0 0.37743,-0.0885 0.48243,-0.24609 0.0682,-0.105 0.095,-0.23225 0.10546,-0.5 l -1.90039,0 c -0.005,-0.063 -0.006,-0.0882 -0.006,-0.125 0,-0.2835 0.0431,-0.5466 0.11133,-0.7461 0.189,-0.5145 0.64455,-0.82422 1.2168,-0.82422 z m 11.85742,0.0469 0,3.16601 c 0,0.16275 0.0593,0.22071 0.2168,0.22071 0.0473,0 0.0784,-0.005 0.13086,-0.0215 l 0,0.58789 c -0.147,0.0158 -0.33055,0.0273 -0.43555,0.0273 -0.45675,0 -0.64648,-0.19035 -0.64648,-0.65235 l 0,-3.32812 0.73437,0 z m -15.40039,0.10547 0,0.76562 -0.78711,0 0,-0.76562 0.78711,0 z m 12.89453,0.41015 c -0.18375,0 -0.35203,0.0893 -0.45703,0.23633 -0.0683,0.105 -0.0995,0.21395 -0.11523,0.4082 l 1.1289,0 c -0.0472,-0.4305 -0.23114,-0.64453 -0.55664,-0.64453 z m -9.33984,0 c -0.18375,0 -0.35203,0.0893 -0.45703,0.23633 -0.0682,0.105 -0.0995,0.21395 -0.11524,0.4082 l 1.12696,0 c -0.0473,-0.4305 -0.22919,-0.64453 -0.55469,-0.64453 z m 13.83789,0.0312 c -0.40425,0 -0.66602,0.36147 -0.66602,0.91797 0,0.53025 0.27227,0.89844 0.66602,0.89844 0.399,0 0.66601,-0.36745 0.66601,-0.9082 0,-0.54075 -0.26701,-0.90821 -0.66601,-0.90821 z m 5.17578,0.0215 c -0.37275,0 -0.61914,0.36159 -0.61914,0.90234 0,0.5145 0.25689,0.87695 0.61914,0.87695 0.3675,0 0.62109,-0.35842 0.62109,-0.88867 0,-0.53025 -0.25359,-0.89062 -0.62109,-0.89062 z m -15.89453,0 c -0.37275,0 -0.61914,0.36159 -0.61914,0.90234 0,0.5145 0.25164,0.87109 0.61914,0.8711 0.3675,0 0.61914,-0.36307 0.61914,-0.88282 0,-0.525 -0.25164,-0.89062 -0.61914,-0.89062 z m -6.67383,1.5 0,0.76758 -0.78711,0 0,-0.76758 0.78711,0 z m 30.40039,2.99609 c 1.49946,0 2.43164,1.06932 2.43164,2.78714 0,1.7033 -0.92472,2.7734 -2.40234,2.7734 -1.31748,0 -2.19816,-0.7649 -2.26367,-1.9805 l 1.0625,0 c 0.0655,0.677 0.49493,1.0645 1.17187,1.0645 0.84435,0 1.33985,-0.6845 1.33985,-1.8418 0,-1.1719 -0.51609,-1.8711 -1.375,-1.8711 -0.37851,0 -0.69268,0.13001 -0.89649,0.38477 -0.11646,0.14558 -0.17472,0.28453 -0.24023,0.56833 l -1.03907,0 c 0.0364,-0.45849 0.12983,-0.75036 0.35547,-1.0488 0.40762,-0.53864 1.06207,-0.83594 1.85547,-0.83594 z m -30.76367,0 c 1.49945,0 2.43164,1.06932 2.43164,2.78714 0,1.7033 -0.92473,2.7734 -2.40234,2.7734 -1.31749,0 -2.19817,-0.7649 -2.26368,-1.9805 l 1.0625,0 c 0.0655,0.677 0.49494,1.0645 1.17188,1.0645 0.84435,0 1.33984,-0.6845 1.33984,-1.8418 0,-1.1719 -0.51804,-1.8711 -1.37695,-1.8711 -0.3785,0 -0.69072,0.13001 -0.89453,0.38477 -0.11646,0.14558 -0.17472,0.28453 -0.24024,0.56833 l -1.04101,0 c 0.0364,-0.45849 0.13177,-0.75036 0.35742,-1.0488 0.40762,-0.53864 1.06207,-0.83594 1.85547,-0.83594 z m 27.76758,0.0879 0,0.9082 -1.01758,0 0,-0.9082 1.01758,0 z m -77.212893,0 0,5.30465 -1.091797,0 0,-2.2851 -2.322266,0 0,-0.9102 2.322266,0 0,-1.20115 -2.634766,0 0,-0.9082 3.726563,0 z m -8.392579,0 0,5.30465 -1.019531,0 0,-0.4003 c -0.247478,0.3858 -0.589028,0.5683 -1.083988,0.5683 -0.93898,0 -1.65234,-0.8955 -1.65234,-2.082 0,-0.5313 0.15983,-1.0688 0.42187,-1.4473 0.26933,-0.3858 0.75006,-0.63475 1.23047,-0.63475 0.48768,0 0.83651,0.18305 1.083988,0.57615 l 0,-1.88475 1.019531,0 z m -8.560549,0 0,5.30465 -1.01758,0 0,-5.30465 1.01758,0 z m -2.01758,0 0,0.9082 -1.01953,0 0,-0.9082 1.01953,0 z m -31.68554,0 0,5.30465 -1.01758,0 0,-2.3574 c 0,-0.4513 -0.32854,-0.7715 -0.78711,-0.7715 -0.21837,0 -0.3933,0.08 -0.50977,0.2403 -0.0873,0.131 -0.11523,0.2336 -0.11523,0.4883 l 0,2.4003 -1.01953,0 0,-2.6347 c 0,-0.4877 0.13107,-0.8369 0.40039,-1.0625 0.22565,-0.18929 0.55331,-0.29885 0.88086,-0.29885 0.50225,0 0.86651,0.20535 1.15039,0.63475 l 0,-1.94335 1.01758,0 z m -12.49414,0 0,5.30465 -1.01953,0 0,-1.2871 -0.40821,-0.4453 -0.9375,1.7324 -1.19531,0 1.43555,-2.4453 -1.33985,-1.48435 1.15625,0 1.28907,1.52935 0,-2.90435 1.01953,0 z m -4.19727,0 0,5.30465 -3.9668,0 0,-0.9082 2.875,0 0,-1.3769 -2.54101,0 0,-0.9102 2.54101,0 0,-1.20115 -2.74414,0 0,-0.9082 3.83594,0 z m 142.425781,0.40039 0,1.05466 0.50196,0 0,0.6778 -0.50196,0 0,2.416 c 0,0.6187 -0.32838,0.9238 -0.99804,0.9238 -0.22565,0 -0.40592,-0.022 -0.5879,-0.08 l 0,-0.7129 c 0.10191,0.015 0.15964,0.022 0.23243,0.022 0.26932,0 0.33398,-0.08 0.33398,-0.4297 l 0,-2.1386 -0.56641,0 0,-0.6778 0.56641,0 0,-1.05466 1.01953,0 z m -37.24804,0 0,1.05466 0.50195,0 0,0.6778 -0.50195,0 0,2.416 c 0,0.6187 -0.32644,0.9238 -0.9961,0.9238 -0.22564,0 -0.40787,-0.022 -0.58984,-0.08 l 0,-0.7129 c 0.1019,0.015 0.15963,0.022 0.23242,0.022 0.26932,0 0.33594,-0.08 0.33594,-0.4297 l 0,-2.1386 -0.56836,0 0,-0.6778 0.56836,0 0,-1.05466 1.01758,0 z m 33.23046,0.90821 c 1.20102,0 1.93555,0.79375 1.93555,2.08205 0,1.2957 -0.73506,2.082 -1.94336,2.082 -1.19374,0 -1.94336,-0.7934 -1.94336,-2.0527 0,-1.332 0.72104,-2.11135 1.95117,-2.11135 z m -8.29101,0 c 1.12823,0 1.82031,0.81535 1.82031,2.13285 0,1.2592 -0.68515,2.0312 -1.79883,2.0312 -0.88075,0 -1.59271,-0.5018 -1.81836,-1.2734 l 1.00391,0 c 0.12374,0.313 0.40807,0.4941 0.7793,0.4941 0.29115,0 0.52434,-0.1234 0.66992,-0.3418 0.0946,-0.1455 0.12997,-0.3201 0.14453,-0.6914 l -2.63477,0 c -0.007,-0.087 -0.008,-0.1229 -0.008,-0.1738 0,-0.3931 0.0597,-0.7586 0.1543,-1.0352 0.26204,-0.7133 0.8941,-1.14255 1.6875,-1.14255 z m -4.72852,0 c 0.53136,0 0.88853,0.19805 1.17969,0.63475 l 0,-0.56835 1.01953,0 0,3.92965 -1.01953,0 0,-2.3574 c 0,-0.4658 -0.3273,-0.7715 -0.82227,-0.7715 -0.43673,0 -0.65625,0.2393 -0.65625,0.7051 l 0,2.4238 -1.01757,0 0,-2.6347 c 0,-0.8662 0.47933,-1.36135 1.3164,-1.36135 z m -3.75781,0 c 0.99721,0 1.61523,0.50255 1.61523,1.31055 0,0.262 -0.0805,0.4878 -0.21875,0.6406 -0.1383,0.1383 -0.26212,0.2043 -0.64062,0.3281 l -1.21484,0.379 c -0.25477,0.08 -0.3418,0.1602 -0.3418,0.3203 0,0.2402 0.28468,0.3847 0.75781,0.3847 0.26204,0 0.4725,-0.051 0.60352,-0.1386 0.10918,-0.08 0.15164,-0.16 0.19531,-0.3711 l 0.99805,0 c -0.0291,0.8589 -0.66173,1.3105 -1.85547,1.3105 -0.54592,0 -0.9608,-0.1167 -1.25196,-0.3496 -0.29115,-0.2329 -0.46679,-0.5967 -0.46679,-0.9824 0,-0.5096 0.25468,-0.8374 0.77148,-0.9903 l 1.28906,-0.371 c 0.28388,-0.087 0.35547,-0.1446 0.35547,-0.3047 0,-0.2184 -0.23122,-0.3653 -0.58789,-0.3653 -0.48768,0 -0.72905,0.1746 -0.73633,0.5313 l -0.98242,0 c 0.0146,-0.8298 0.6555,-1.33205 1.71094,-1.33205 z m -9.32031,0 c 1.06272,0 1.61613,0.45155 1.68164,1.36135 l -0.98242,0 c -0.051,-0.4076 -0.21846,-0.5371 -0.72071,-0.5371 -0.39306,0 -0.58984,0.1305 -0.58984,0.3925 0,0.1311 0.0666,0.2464 0.17578,0.3047 0.1383,0.073 0.13838,0.074 0.64063,0.1543 l 0.4082,0.072 c 0.77884,0.131 1.15625,0.5303 1.15625,1.2363 0,0.3348 -0.0954,0.612 -0.27734,0.8086 -0.22565,0.2329 -0.56663,0.3711 -0.91602,0.3711 -0.43673,0 -0.83669,-0.1893 -1.19336,-0.5605 0,0.2038 -0.0226,0.276 -0.11719,0.3925 l -1.10547,0 0,-0.123 c 0.18198,-0.1674 0.23243,-0.2767 0.23243,-0.4805 l 0,-2.1836 c 0,-0.8007 0.5447,-1.20895 1.60742,-1.20895 z m -4.61133,0 c 0.49496,0 0.84431,0.21165 1.0918,0.64845 l 0,-0.58205 1.01953,0 0,5.51755 -1.01953,0 0,-2.0527 c -0.24749,0.4368 -0.59684,0.6406 -1.0918,0.6406 -0.94626,0 -1.64453,-0.8883 -1.64453,-2.082 0,-0.5532 0.15983,-1.1068 0.42187,-1.4707 0.26204,-0.3713 0.74953,-0.61915 1.22266,-0.61915 z m -6.32813,0 c 1.12823,0 1.82032,0.81535 1.82032,2.13285 0,1.2592 -0.68516,2.0312 -1.79883,2.0312 -0.88075,0 -1.59271,-0.5018 -1.81836,-1.2734 l 1.00391,0 c 0.12374,0.313 0.40807,0.4941 0.77929,0.4941 0.29116,0 0.52435,-0.1234 0.66992,-0.3418 0.0946,-0.1455 0.12998,-0.3201 0.14454,-0.6914 l -2.63477,0 c -0.007,-0.087 -0.008,-0.1229 -0.008,-0.1738 0,-0.3931 0.0597,-0.7586 0.15429,-1.0352 0.26205,-0.7133 0.8941,-1.14255 1.6875,-1.14255 z m -9.08984,0 c 0.46585,0 0.87343,0.30655 1.0918,0.83785 l 0,-0.77145 1.01758,0 0,3.92965 -1.01758,0 0,-2.0878 c 0,-0.5968 -0.29962,-0.8965 -0.89649,-0.8965 -0.10918,0 -0.18201,0.01 -0.32031,0.029 l 0,-1.03324 c 0.0582,-0.007 0.0959,-0.008 0.125,-0.008 z m -2.22656,0 c 0.99721,0 1.61719,0.50255 1.61719,1.31055 0,0.262 -0.0805,0.4878 -0.21875,0.6406 -0.1383,0.1383 -0.26213,0.2043 -0.64063,0.3281 l -1.21484,0.379 c -0.25476,0.08 -0.34375,0.1602 -0.34375,0.3203 0,0.2402 0.28468,0.3847 0.75781,0.3847 0.26204,0 0.47249,-0.051 0.60352,-0.1386 0.10918,-0.08 0.15359,-0.16 0.19726,-0.3711 l 0.99805,0 c -0.0291,0.8589 -0.66368,1.3105 -1.85742,1.3105 -0.54592,0 -0.9608,-0.1167 -1.25196,-0.3496 -0.29115,-0.2329 -0.46484,-0.5967 -0.46484,-0.9824 0,-0.5096 0.25468,-0.8374 0.77148,-0.9903 l 1.28711,-0.371 c 0.28388,-0.087 0.35742,-0.1446 0.35742,-0.3047 0,-0.2184 -0.23317,-0.3653 -0.58984,-0.3653 -0.48769,0 -0.7271,0.1746 -0.73437,0.5313 l -0.98243,0 c 0.0146,-0.8298 0.65355,-1.33205 1.70899,-1.33205 z m -28.591799,0 c 1.062721,0 1.61613,0.45155 1.68164,1.36135 l -0.982421,0 c -0.05095,-0.4076 -0.21846,-0.5371 -0.720703,-0.5371 -0.393063,0 -0.589844,0.1305 -0.589844,0.3925 0,0.1311 0.0666,0.2464 0.175781,0.3047 0.138299,0.073 0.13838,0.074 0.640625,0.1543 l 0.40625,0.072 c 0.778843,0.131 1.158203,0.5303 1.158203,1.2363 0,0.3348 -0.09537,0.612 -0.277344,0.8086 -0.225646,0.2329 -0.566627,0.3711 -0.916015,0.3711 -0.436734,0 -0.836693,-0.1893 -1.19336,-0.5605 0,0.2038 -0.02257,0.276 -0.117187,0.3925 l -1.105469,0 0,-0.123 c 0.181972,-0.1674 0.232422,-0.2767 0.232422,-0.4805 l 0,-2.1836 c 0,-0.8007 0.544702,-1.20895 1.607422,-1.20895 z m -8.507812,0 c 1.12823,0 1.82031,0.81535 1.82031,2.13285 0,1.2592 -0.68516,2.0312 -1.79883,2.0312 -0.88075,0 -1.59466,-0.5018 -1.82031,-1.2734 l 1.00586,0 c 0.12374,0.313 0.40808,0.4941 0.7793,0.4941 0.29116,0 0.5224,-0.1234 0.66797,-0.3418 0.0946,-0.1455 0.13192,-0.3201 0.14648,-0.6914 l -2.63477,0 c -0.007,-0.087 -0.0078,-0.1229 -0.0078,-0.1738 0,-0.3931 0.05769,-0.7586 0.15235,-1.0352 0.26204,-0.7133 0.89605,-1.14255 1.68945,-1.14255 z m -8.08984,0 c 1.12823,0 1.82031,0.81535 1.82031,2.13285 0,1.2592 -0.68515,2.0312 -1.79883,2.0312 -0.88074,0 -1.59272,-0.5018 -1.81836,-1.2734 l 1.00391,0 c 0.12374,0.313 0.40807,0.4941 0.77929,0.4941 0.29116,0 0.52435,-0.1234 0.66993,-0.3418 0.0946,-0.1455 0.12997,-0.3201 0.14453,-0.6914 l -2.63477,0 c -0.007,-0.087 -0.0078,-0.1229 -0.0078,-0.1738 0,-0.3931 0.05964,-0.7586 0.1543,-1.0352 0.26204,-0.7133 0.8941,-1.14255 1.6875,-1.14255 z m -4.64063,0 c 0.46585,0 0.87343,0.30655 1.0918,0.83785 l 0,-0.77145 1.01953,0 0,3.92965 -1.01953,0 0,-2.0878 c 0,-0.5968 -0.29962,-0.8965 -0.89649,-0.8965 -0.10918,0 -0.18201,0.01 -0.32031,0.029 l 0,-1.03324 c 0.0582,-0.007 0.09586,-0.008 0.125,-0.008 z m -29.4668,0 c 1.06272,0 1.61613,0.45155 1.68164,1.36135 l -0.98437,0 c -0.051,-0.4076 -0.2165,-0.5371 -0.71875,-0.5371 -0.39306,0 -0.58984,0.1305 -0.58984,0.3925 0,0.1311 0.06463,0.2464 0.17382,0.3047 0.1383,0.073 0.13838,0.074 0.64063,0.1543 l 0.4082,0.072 c 0.77884,0.131 1.15625,0.5303 1.15625,1.2363 0,0.3348 -0.09339,0.612 -0.27539,0.8086 -0.22564,0.2329 -0.56858,0.3711 -0.91797,0.3711 -0.43673,0 -0.83669,-0.1893 -1.19336,-0.5605 0,0.2038 -0.02252,0.276 -0.11718,0.3925 l -1.10547,0 0,-0.123 c 0.18198,-0.1674 0.23242,-0.2767 0.23242,-0.4805 l 0,-2.1836 c 0,-0.8007 0.54665,-1.20895 1.60937,-1.20895 z m -4.18359,0 c 1.1719,0 1.85547,0.77205 1.85547,2.11135 0,1.2957 -0.67523,2.0527 -1.83984,2.0527 -0.95355,0 -1.61632,-0.5903 -1.71094,-1.5293 l 0.97461,0 c 0.13102,0.5095 0.33545,0.707 0.72851,0.707 0.5168,0 0.83008,-0.4661 0.83008,-1.2304 0,-0.3712 -0.07352,-0.7202 -0.19726,-0.9531 -0.11646,-0.2184 -0.34166,-0.334 -0.63282,-0.334 -0.4149,0 -0.61205,0.1961 -0.72851,0.7129 l -0.97461,0 c 0.0728,-0.9608 0.71266,-1.53715 1.69531,-1.53715 z m -13.51758,0 c 0.53136,0 0.88659,0.19805 1.17774,0.63475 l 0,-0.56835 1.01953,0 0,3.92965 -1.01953,0 0,-2.3574 c 0,-0.4658 -0.32731,-0.7715 -0.82227,-0.7715 -0.43674,0 -0.6543,0.2393 -0.6543,0.7051 l 0,2.4238 -1.01953,0 0,-2.6347 c 0,-0.8662 0.48129,-1.36135 1.31836,-1.36135 z m -3.7597595,0 c 0.99721,0 1.6171795,0.50255 1.6171795,1.31055 0,0.262 -0.08048,0.4878 -0.2187495,0.6406 -0.13829,0.1383 -0.26212,0.2043 -0.64062,0.3281 l -1.2168,0.379 c -0.25476,0.08 -0.3418,0.1602 -0.3418,0.3203 0,0.2402 0.28469,0.3847 0.75782,0.3847 0.26204,0 0.47249,-0.051 0.60351,-0.1386 0.10918,-0.08 0.1536,-0.16 0.19727,-0.3711 l 0.9960895,0 c -0.0291,0.8589 -0.6617295,1.3105 -1.8554695,1.3105 -0.54592,0 -0.9608,-0.1167 -1.25195,-0.3496 -0.29116,-0.2329 -0.46484,-0.5967 -0.46484,-0.9824 0,-0.5096 0.25468,-0.8374 0.77148,-0.9903 l 1.28711,-0.371 c 0.28388,-0.087 0.35742,-0.1446 0.35742,-0.3047 0,-0.2184 -0.23317,-0.3653 -0.58984,-0.3653 -0.48768,0 -0.7271,0.1746 -0.73438,0.5313 l -0.98437,0 c 0.0146,-0.8298 0.6555,-1.33205 1.71094,-1.33205 z m 155.2636705,0.0664 0,3.92965 -1.01758,0 0,-3.92965 1.01758,0 z m -8.47656,0 -1.4629,4.08985 0,0.01 0,0.023 c 0,0.3713 0.27615,0.6543 0.63282,0.6543 0.0801,0 0.13851,-0.01 0.26953,-0.043 l 0,0.7637 c -0.15286,0.022 -0.23954,0.029 -0.36328,0.029 -0.25476,0 -0.56164,-0.052 -0.73633,-0.125 -0.28388,-0.1164 -0.4068,-0.2822 -0.57422,-0.748 l -1.61719,-4.65239 1.04883,0 0.81445,2.85939 0.86719,-2.86135 1.1211,0 z m -37.20704,0 0,2.73635 c 0,0.8662 -0.47933,1.3613 -1.3164,1.3613 -0.53136,0 -0.88853,-0.196 -1.17969,-0.6328 l 0,0.4648 -1.01953,0 0,-3.92965 1.01953,0 0,2.46095 c 0,0.4659 0.3273,0.7715 0.82227,0.7715 0.43673,0 0.65625,-0.234 0.65625,-0.7071 l 0,-2.52535 1.01757,0 z m -50.500001,0 0,3.92965 -1.01953,0 0,-3.92965 1.01953,0 z m 81.755861,0.71285 c -0.25476,0 -0.48918,0.1243 -0.63476,0.3282 -0.0946,0.1455 -0.13832,0.299 -0.16016,0.5683 l 1.56641,0 c -0.0655,-0.5969 -0.32019,-0.8965 -0.77149,-0.8965 z m -28.74609,0 c -0.25476,0 -0.48919,0.1243 -0.63477,0.3282 -0.0946,0.1455 -0.13832,0.299 -0.16015,0.5683 l 1.5664,0 c -0.0655,-0.5969 -0.32019,-0.8965 -0.77148,-0.8965 z m -48.417971,0 c -0.25476,0 -0.48724,0.1243 -0.63281,0.3282 -0.0946,0.1455 -0.13832,0.299 -0.16016,0.5683 l 1.56446,0 c -0.0655,-0.5969 -0.3202,-0.8965 -0.77149,-0.8965 z m -8.08789,0 c -0.25477,0 -0.48917,0.1243 -0.63477,0.3282 -0.09458,0.1455 -0.13832,0.299 -0.16015,0.5683 l 1.56641,0 c -0.06552,-0.5969 -0.3202,-0.8965 -0.77149,-0.8965 z m 93.519531,0.045 c -0.56047,0 -0.92383,0.5018 -0.92383,1.2734 0,0.7352 0.37791,1.2441 0.92383,1.2441 0.5532,0 0.92383,-0.5099 0.92383,-1.2597 0,-0.7497 -0.37063,-1.2578 -0.92383,-1.2578 z m -30.46875,0.027 c -0.5168,0 -0.85742,0.5022 -0.85742,1.252 0,0.7133 0.35518,1.2168 0.85742,1.2168 0.50952,0 0.85938,-0.4953 0.85938,-1.2305 0,-0.7352 -0.34986,-1.2383 -0.85938,-1.2383 z m -50.855471,0 c -0.50224,0 -0.85742,0.5104 -0.85742,1.2383 0,0.7133 0.35518,1.2227 0.85742,1.2227 0.5168,0 0.859378,-0.4945 0.859378,-1.2442 0,-0.7134 -0.349848,-1.2168 -0.859378,-1.2168 z m 26.863281,0.5527 0,0.7129 0,0.1719 -12.374997,0 0,-0.8848 12.374997,0 z m -49.181641,0 0,0.8848 -12.375,0 0,-0.8848 12.375,0 z m 76.941411,0.7364 0,0.2754 0,0 c 0,0.5895 0.29179,0.9238 0.80859,0.9238 0.34211,0 0.55274,-0.1814 0.55274,-0.4726 0,-0.3057 -0.15986,-0.4517 -0.58203,-0.5391 l -0.34961,-0.066 c -0.26932,-0.051 -0.31323,-0.065 -0.42969,-0.123 z m -50.847657,0 0,0.2754 0,0 c 0,0.5895 0.29179,0.9238 0.808594,0.9238 0.342107,0 0.552734,-0.1814 0.552734,-0.4726 0,-0.3057 -0.159854,-0.4517 -0.582031,-0.5391 l -0.34961,-0.066 c -0.26932,-0.051 -0.313224,-0.065 -0.429687,-0.123 z m -50.705074,0 0,0.2754 0,0 c 0,0.5895 0.28984,0.9238 0.80664,0.9238 0.34211,0 0.55468,-0.1814 0.55468,-0.4726 0,-0.3057 -0.1618,-0.4517 -0.58398,-0.5391 l -0.34766,-0.066 c -0.26931,-0.051 -0.31322,-0.065 -0.42968,-0.123 z"
       id="path13539"
       inkscape:connector-curvature="0" />
  </g>
  <g
     inkscape:groupmode="layer"
     id="layer2"
     inkscape:label="Calque 2"
     style="display:inline" />
</svg>
